solid ASCII
  facet normal 0.000000e+00 -4.263256e-16 1.000000e+00
    outer loop
      vertex   3.072862e-15 -1.175000e+01 -4.540000e+00
      vertex   3.890113e-15 -1.800000e+01 -4.540000e+00
      vertex   3.000000e+00 -1.175000e+01 -4.540000e+00
    endloop
  endfacet
  facet normal 0.000000e+00 -4.263256e-16 1.000000e+00
    outer loop
      vertex   3.000000e+00 -1.175000e+01 -4.540000e+00
      vertex   3.890113e-15 -1.800000e+01 -4.540000e+00
      vertex   3.000000e+00 -1.800000e+01 -4.540000e+00
    endloop
  endfacet
  facet normal 1.000000e+00 1.421085e-16 0.000000e+00
    outer loop
      vertex   3.000000e+00 -1.800000e+01 -4.540000e+00
      vertex   3.000000e+00 -1.800000e+01 -6.540000e+00
      vertex   3.000000e+00 -1.175000e+01 -4.540000e+00
    endloop
  endfacet
  facet normal 1.000000e+00 1.421085e-16 0.000000e+00
    outer loop
      vertex   3.000000e+00 -1.175000e+01 -4.540000e+00
      vertex   3.000000e+00 -1.800000e+01 -6.540000e+00
      vertex   3.000000e+00 -1.175000e+01 -6.540000e+00
    endloop
  endfacet
  facet normal 0.000000e+00 -4.263256e-16 1.000000e+00
    outer loop
      vertex   -8.172506e-16 1.800000e+01 -4.540000e+00
      vertex   3.722028e-31 1.175000e+01 -4.540000e+00
      vertex   3.000000e+00 1.800000e+01 -4.540000e+00
    endloop
  endfacet
  facet normal 0.000000e+00 -4.263256e-16 1.000000e+00
    outer loop
      vertex   3.000000e+00 1.800000e+01 -4.540000e+00
      vertex   3.722028e-31 1.175000e+01 -4.540000e+00
      vertex   3.000000e+00 1.175000e+01 -4.540000e+00
    endloop
  endfacet
  facet normal 1.000000e+00 7.105427e-17 0.000000e+00
    outer loop
      vertex   3.000000e+00 1.175000e+01 -4.540000e+00
      vertex   3.000000e+00 1.175000e+01 -6.540000e+00
      vertex   3.000000e+00 1.800000e+01 -4.540000e+00
    endloop
  endfacet
  facet normal 1.000000e+00 7.105427e-17 0.000000e+00
    outer loop
      vertex   3.000000e+00 1.800000e+01 -4.540000e+00
      vertex   3.000000e+00 1.175000e+01 -6.540000e+00
      vertex   3.000000e+00 1.800000e+01 -6.540000e+00
    endloop
  endfacet
  facet normal 1.000000e+00 1.307601e-16 1.209788e-15
    outer loop
      vertex   3.072862e-15 -1.175000e+01 -4.540000e+00
      vertex   0.000000e+00 -1.175000e+01 -2.000000e+00
      vertex   3.890113e-15 -1.800000e+01 -4.540000e+00
    endloop
  endfacet
  facet normal 1.000000e+00 -8.881784e-17 1.750088e-15
    outer loop
      vertex   3.890113e-15 -1.800000e+01 -4.540000e+00
      vertex   0.000000e+00 -1.175000e+01 -2.000000e+00
      vertex   -5.551115e-16 -1.800000e+01 -2.000000e+00
    endloop
  endfacet
  facet normal 1.000000e+00 1.307601e-16 -1.032044e-16
    outer loop
      vertex   -8.172506e-16 1.800000e+01 -4.540000e+00
      vertex   -5.551115e-16 1.800000e+01 -2.000000e+00
      vertex   3.722028e-31 1.175000e+01 -4.540000e+00
    endloop
  endfacet
  facet normal 1.000000e+00 8.881784e-17 1.465365e-31
    outer loop
      vertex   3.722028e-31 1.175000e+01 -4.540000e+00
      vertex   -5.551115e-16 1.800000e+01 -2.000000e+00
      vertex   0.000000e+00 1.175000e+01 -2.000000e+00
    endloop
  endfacet
  facet normal 0.000000e+00 -4.263256e-16 -1.000000e+00
    outer loop
      vertex   -2.000000e+00 1.175000e+01 -6.540000e+00
      vertex   -2.000000e+00 1.800000e+01 -6.540000e+00
      vertex   3.000000e+00 1.175000e+01 -6.540000e+00
    endloop
  endfacet
  facet normal 0.000000e+00 -4.263256e-16 -1.000000e+00
    outer loop
      vertex   3.000000e+00 1.175000e+01 -6.540000e+00
      vertex   -2.000000e+00 1.800000e+01 -6.540000e+00
      vertex   3.000000e+00 1.800000e+01 -6.540000e+00
    endloop
  endfacet
  facet normal 0.000000e+00 1.000000e+00 0.000000e+00
    outer loop
      vertex   -8.172506e-16 1.800000e+01 0.000000e+00
      vertex   -5.551115e-16 1.800000e+01 -2.000000e+00
      vertex   -2.000000e+00 1.800000e+01 0.000000e+00
    endloop
  endfacet
  facet normal 0.000000e+00 1.000000e+00 0.000000e+00
    outer loop
      vertex   -2.000000e+00 1.800000e+01 0.000000e+00
      vertex   -5.551115e-16 1.800000e+01 -2.000000e+00
      vertex   -8.172506e-16 1.800000e+01 -4.540000e+00
    endloop
  endfacet
  facet normal 0.000000e+00 1.000000e+00 0.000000e+00
    outer loop
      vertex   -2.000000e+00 1.800000e+01 0.000000e+00
      vertex   -8.172506e-16 1.800000e+01 -4.540000e+00
      vertex   -2.000000e+00 1.800000e+01 -6.540000e+00
    endloop
  endfacet
  facet normal 0.000000e+00 1.000000e+00 0.000000e+00
    outer loop
      vertex   -2.000000e+00 1.800000e+01 -6.540000e+00
      vertex   -8.172506e-16 1.800000e+01 -4.540000e+00
      vertex   3.000000e+00 1.800000e+01 -6.540000e+00
    endloop
  endfacet
  facet normal 0.000000e+00 1.000000e+00 -0.000000e+00
    outer loop
      vertex   3.000000e+00 1.800000e+01 -6.540000e+00
      vertex   -8.172506e-16 1.800000e+01 -4.540000e+00
      vertex   3.000000e+00 1.800000e+01 -4.540000e+00
    endloop
  endfacet
  facet normal -1.000000e+00 -1.421085e-16 -0.000000e+00
    outer loop
      vertex   -2.000000e+00 1.800000e+01 0.000000e+00
      vertex   -2.000000e+00 1.800000e+01 -6.540000e+00
      vertex   -2.000000e+00 1.175000e+01 0.000000e+00
    endloop
  endfacet
  facet normal -1.000000e+00 -1.421085e-16 -0.000000e+00
    outer loop
      vertex   -2.000000e+00 1.175000e+01 0.000000e+00
      vertex   -2.000000e+00 1.800000e+01 -6.540000e+00
      vertex   -2.000000e+00 1.175000e+01 -6.540000e+00
    endloop
  endfacet
  facet normal 0.000000e+00 -1.000000e+00 -0.000000e+00
    outer loop
      vertex   -5.551115e-16 -1.800000e+01 -2.000000e+00
      vertex   -2.000000e+00 -1.800000e+01 -6.540000e+00
      vertex   3.890113e-15 -1.800000e+01 -4.540000e+00
    endloop
  endfacet
  facet normal 0.000000e+00 -1.000000e+00 -0.000000e+00
    outer loop
      vertex   3.890113e-15 -1.800000e+01 -4.540000e+00
      vertex   -2.000000e+00 -1.800000e+01 -6.540000e+00
      vertex   3.000000e+00 -1.800000e+01 -6.540000e+00
    endloop
  endfacet
  facet normal 0.000000e+00 -1.000000e+00 0.000000e+00
    outer loop
      vertex   3.890113e-15 -1.800000e+01 -4.540000e+00
      vertex   3.000000e+00 -1.800000e+01 -6.540000e+00
      vertex   3.000000e+00 -1.800000e+01 -4.540000e+00
    endloop
  endfacet
  facet normal -1.776357e-15 -1.000000e+00 -1.776357e-15
    outer loop
      vertex   -8.212732e-16 -1.800000e+01 0.000000e+00
      vertex   -2.000000e+00 -1.800000e+01 0.000000e+00
      vertex   -5.551115e-16 -1.800000e+01 -2.000000e+00
    endloop
  endfacet
  facet normal -0.000000e+00 -1.000000e+00 0.000000e+00
    outer loop
      vertex   -5.551115e-16 -1.800000e+01 -2.000000e+00
      vertex   -2.000000e+00 -1.800000e+01 0.000000e+00
      vertex   -2.000000e+00 -1.800000e+01 -6.540000e+00
    endloop
  endfacet
  facet normal 0.000000e+00 -4.263256e-16 -1.000000e+00
    outer loop
      vertex   -2.000000e+00 -1.800000e+01 -6.540000e+00
      vertex   -2.000000e+00 -1.175000e+01 -6.540000e+00
      vertex   3.000000e+00 -1.800000e+01 -6.540000e+00
    endloop
  endfacet
  facet normal 0.000000e+00 -4.263256e-16 -1.000000e+00
    outer loop
      vertex   3.000000e+00 -1.800000e+01 -6.540000e+00
      vertex   -2.000000e+00 -1.175000e+01 -6.540000e+00
      vertex   3.000000e+00 -1.175000e+01 -6.540000e+00
    endloop
  endfacet
  facet normal -1.000000e+00 -1.421085e-16 -0.000000e+00
    outer loop
      vertex   -2.000000e+00 -1.175000e+01 0.000000e+00
      vertex   -2.000000e+00 -1.175000e+01 -6.540000e+00
      vertex   -2.000000e+00 -1.800000e+01 0.000000e+00
    endloop
  endfacet
  facet normal -1.000000e+00 -1.421085e-16 -0.000000e+00
    outer loop
      vertex   -2.000000e+00 -1.800000e+01 0.000000e+00
      vertex   -2.000000e+00 -1.175000e+01 -6.540000e+00
      vertex   -2.000000e+00 -1.800000e+01 -6.540000e+00
    endloop
  endfacet
  facet normal 7.356080e-16 -2.588190e-01 9.659258e-01
    outer loop
      vertex   9.000000e+00 -1.365000e+01 3.050962e+00
      vertex   6.500000e+00 -1.365000e+01 3.050962e+00
      vertex   9.000000e+00 -1.440000e+01 2.850000e+00
    endloop
  endfacet
  facet normal 5.517060e-16 -2.588190e-01 9.659258e-01
    outer loop
      vertex   9.000000e+00 -1.440000e+01 2.850000e+00
      vertex   6.500000e+00 -1.365000e+01 3.050962e+00
      vertex   6.500000e+00 -1.440000e+01 2.850000e+00
    endloop
  endfacet
  facet normal -5.517060e-16 2.588190e-01 9.659258e-01
    outer loop
      vertex   9.000000e+00 -1.440000e+01 2.850000e+00
      vertex   6.500000e+00 -1.440000e+01 2.850000e+00
      vertex   9.000000e+00 -1.515000e+01 3.050962e+00
    endloop
  endfacet
  facet normal -5.517060e-16 2.588190e-01 9.659258e-01
    outer loop
      vertex   9.000000e+00 -1.515000e+01 3.050962e+00
      vertex   6.500000e+00 -1.440000e+01 2.850000e+00
      vertex   6.500000e+00 -1.515000e+01 3.050962e+00
    endloop
  endfacet
  facet normal -1.507289e-15 7.071068e-01 7.071068e-01
    outer loop
      vertex   9.000000e+00 -1.515000e+01 3.050962e+00
      vertex   6.500000e+00 -1.515000e+01 3.050962e+00
      vertex   6.500000e+00 -1.569904e+01 3.600000e+00
    endloop
  endfacet
  facet normal 2.009718e-15 -7.071068e-01 7.071068e-01
    outer loop
      vertex   9.000000e+00 -1.365000e+01 3.050962e+00
      vertex   9.000000e+00 -1.310096e+01 3.600000e+00
      vertex   6.500000e+00 -1.365000e+01 3.050962e+00
    endloop
  endfacet
  facet normal 1.515649e-15 -7.071068e-01 7.071068e-01
    outer loop
      vertex   6.500000e+00 -1.365000e+01 3.050962e+00
      vertex   9.000000e+00 -1.310096e+01 3.600000e+00
      vertex   6.500000e+00 -1.310096e+01 3.600000e+00
    endloop
  endfacet
  facet normal 2.561424e-15 -9.659258e-01 2.588190e-01
    outer loop
      vertex   6.500000e+00 -1.310096e+01 3.600000e+00
      vertex   9.000000e+00 -1.310096e+01 3.600000e+00
      vertex   9.000000e+00 -1.290000e+01 4.350000e+00
    endloop
  endfacet
  facet normal 1.372663e-15 -9.659258e-01 2.588190e-01
    outer loop
      vertex   6.500000e+00 -1.310096e+01 3.600000e+00
      vertex   9.000000e+00 -1.290000e+01 4.350000e+00
      vertex   6.500000e+00 -1.290000e+01 4.350000e+00
    endloop
  endfacet
  facet normal 1.372663e-15 -9.659258e-01 -2.588190e-01
    outer loop
      vertex   6.500000e+00 -1.290000e+01 4.350000e+00
      vertex   9.000000e+00 -1.290000e+01 4.350000e+00
      vertex   9.000000e+00 -1.310096e+01 5.100000e+00
    endloop
  endfacet
  facet normal 7.721230e-16 -9.659258e-01 -2.588190e-01
    outer loop
      vertex   6.500000e+00 -1.290000e+01 4.350000e+00
      vertex   9.000000e+00 -1.310096e+01 5.100000e+00
      vertex   6.500000e+00 -1.310096e+01 5.100000e+00
    endloop
  endfacet
  facet normal 7.536444e-16 -7.071068e-01 -7.071068e-01
    outer loop
      vertex   6.500000e+00 -1.310096e+01 5.100000e+00
      vertex   9.000000e+00 -1.310096e+01 5.100000e+00
      vertex   9.000000e+00 -1.365000e+01 5.649038e+00
    endloop
  endfacet
  facet normal 4.861515e-16 -7.071068e-01 -7.071068e-01
    outer loop
      vertex   6.500000e+00 -1.310096e+01 5.100000e+00
      vertex   9.000000e+00 -1.365000e+01 5.649038e+00
      vertex   6.500000e+00 -1.365000e+01 5.649038e+00
    endloop
  endfacet
  facet normal 1.839020e-16 -2.588190e-01 -9.659258e-01
    outer loop
      vertex   6.500000e+00 -1.365000e+01 5.649038e+00
      vertex   9.000000e+00 -1.365000e+01 5.649038e+00
      vertex   9.000000e+00 -1.440000e+01 5.850000e+00
    endloop
  endfacet
  facet normal 5.576444e-16 -2.588190e-01 -9.659258e-01
    outer loop
      vertex   6.500000e+00 -1.365000e+01 5.649038e+00
      vertex   9.000000e+00 -1.440000e+01 5.850000e+00
      vertex   6.500000e+00 -1.440000e+01 5.850000e+00
    endloop
  endfacet
  facet normal -5.517060e-16 2.588190e-01 -9.659258e-01
    outer loop
      vertex   6.500000e+00 -1.440000e+01 5.850000e+00
      vertex   9.000000e+00 -1.440000e+01 5.850000e+00
      vertex   9.000000e+00 -1.515000e+01 5.649038e+00
    endloop
  endfacet
  facet normal -3.717629e-16 2.588190e-01 -9.659258e-01
    outer loop
      vertex   6.500000e+00 -1.440000e+01 5.850000e+00
      vertex   9.000000e+00 -1.515000e+01 5.649038e+00
      vertex   6.500000e+00 -1.515000e+01 5.649038e+00
    endloop
  endfacet
  facet normal -1.004859e-15 7.071068e-01 -7.071068e-01
    outer loop
      vertex   6.500000e+00 -1.515000e+01 5.649038e+00
      vertex   9.000000e+00 -1.515000e+01 5.649038e+00
      vertex   9.000000e+00 -1.569904e+01 5.100000e+00
    endloop
  endfacet
  facet normal -1.000900e-15 7.071068e-01 -7.071068e-01
    outer loop
      vertex   6.500000e+00 -1.515000e+01 5.649038e+00
      vertex   9.000000e+00 -1.569904e+01 5.100000e+00
      vertex   6.500000e+00 -1.569904e+01 5.100000e+00
    endloop
  endfacet
  facet normal -1.372663e-15 9.659258e-01 -2.588190e-01
    outer loop
      vertex   6.500000e+00 -1.569904e+01 5.100000e+00
      vertex   9.000000e+00 -1.569904e+01 5.100000e+00
      vertex   9.000000e+00 -1.590000e+01 4.350000e+00
    endloop
  endfacet
  facet normal -2.058995e-15 9.659258e-01 -2.588190e-01
    outer loop
      vertex   6.500000e+00 -1.569904e+01 5.100000e+00
      vertex   9.000000e+00 -1.590000e+01 4.350000e+00
      vertex   6.500000e+00 -1.590000e+01 4.350000e+00
    endloop
  endfacet
  facet normal -2.058995e-15 9.659258e-01 2.588190e-01
    outer loop
      vertex   6.500000e+00 -1.590000e+01 4.350000e+00
      vertex   9.000000e+00 -1.590000e+01 4.350000e+00
      vertex   9.000000e+00 -1.569904e+01 3.600000e+00
    endloop
  endfacet
  facet normal -1.372663e-15 9.659258e-01 2.588190e-01
    outer loop
      vertex   6.500000e+00 -1.590000e+01 4.350000e+00
      vertex   9.000000e+00 -1.569904e+01 3.600000e+00
      vertex   6.500000e+00 -1.569904e+01 3.600000e+00
    endloop
  endfacet
  facet normal -1.004859e-15 7.071068e-01 7.071068e-01
    outer loop
      vertex   6.500000e+00 -1.569904e+01 3.600000e+00
      vertex   9.000000e+00 -1.569904e+01 3.600000e+00
      vertex   9.000000e+00 -1.515000e+01 3.050962e+00
    endloop
  endfacet
  facet normal 5.517060e-16 -2.588190e-01 9.659258e-01
    outer loop
      vertex   9.000000e+00 1.515000e+01 3.050962e+00
      vertex   6.500000e+00 1.515000e+01 3.050962e+00
      vertex   9.000000e+00 1.440000e+01 2.850000e+00
    endloop
  endfacet
  facet normal 3.678040e-16 -2.588190e-01 9.659258e-01
    outer loop
      vertex   9.000000e+00 1.440000e+01 2.850000e+00
      vertex   6.500000e+00 1.515000e+01 3.050962e+00
      vertex   6.500000e+00 1.440000e+01 2.850000e+00
    endloop
  endfacet
  facet normal -3.678040e-16 2.588190e-01 9.659258e-01
    outer loop
      vertex   9.000000e+00 1.440000e+01 2.850000e+00
      vertex   6.500000e+00 1.440000e+01 2.850000e+00
      vertex   9.000000e+00 1.365000e+01 3.050962e+00
    endloop
  endfacet
  facet normal -5.517060e-16 2.588190e-01 9.659258e-01
    outer loop
      vertex   9.000000e+00 1.365000e+01 3.050962e+00
      vertex   6.500000e+00 1.440000e+01 2.850000e+00
      vertex   6.500000e+00 1.365000e+01 3.050962e+00
    endloop
  endfacet
  facet normal -1.507289e-15 7.071068e-01 7.071068e-01
    outer loop
      vertex   9.000000e+00 1.365000e+01 3.050962e+00
      vertex   6.500000e+00 1.365000e+01 3.050962e+00
      vertex   6.500000e+00 1.310096e+01 3.600000e+00
    endloop
  endfacet
  facet normal 1.507289e-15 -7.071068e-01 7.071068e-01
    outer loop
      vertex   9.000000e+00 1.515000e+01 3.050962e+00
      vertex   9.000000e+00 1.569904e+01 3.600000e+00
      vertex   6.500000e+00 1.515000e+01 3.050962e+00
    endloop
  endfacet
  facet normal 1.029497e-15 -7.071068e-01 7.071068e-01
    outer loop
      vertex   6.500000e+00 1.515000e+01 3.050962e+00
      vertex   9.000000e+00 1.569904e+01 3.600000e+00
      vertex   6.500000e+00 1.569904e+01 3.600000e+00
    endloop
  endfacet
  facet normal 1.875093e-15 -9.659258e-01 2.588190e-01
    outer loop
      vertex   6.500000e+00 1.569904e+01 3.600000e+00
      vertex   9.000000e+00 1.569904e+01 3.600000e+00
      vertex   9.000000e+00 1.590000e+01 4.350000e+00
    endloop
  endfacet
  facet normal 1.372663e-15 -9.659258e-01 2.588190e-01
    outer loop
      vertex   6.500000e+00 1.569904e+01 3.600000e+00
      vertex   9.000000e+00 1.590000e+01 4.350000e+00
      vertex   6.500000e+00 1.590000e+01 4.350000e+00
    endloop
  endfacet
  facet normal 1.372663e-15 -9.659258e-01 -2.588190e-01
    outer loop
      vertex   6.500000e+00 1.590000e+01 4.350000e+00
      vertex   9.000000e+00 1.590000e+01 4.350000e+00
      vertex   9.000000e+00 1.569904e+01 5.100000e+00
    endloop
  endfacet
  facet normal 2.144786e-15 -9.659258e-01 -2.588190e-01
    outer loop
      vertex   6.500000e+00 1.590000e+01 4.350000e+00
      vertex   9.000000e+00 1.569904e+01 5.100000e+00
      vertex   6.500000e+00 1.569904e+01 5.100000e+00
    endloop
  endfacet
  facet normal 1.758504e-15 -7.071068e-01 -7.071068e-01
    outer loop
      vertex   6.500000e+00 1.569904e+01 5.100000e+00
      vertex   9.000000e+00 1.569904e+01 5.100000e+00
      vertex   9.000000e+00 1.515000e+01 5.649038e+00
    endloop
  endfacet
  facet normal 4.861515e-16 -7.071068e-01 -7.071068e-01
    outer loop
      vertex   6.500000e+00 1.569904e+01 5.100000e+00
      vertex   9.000000e+00 1.515000e+01 5.649038e+00
      vertex   6.500000e+00 1.515000e+01 5.649038e+00
    endloop
  endfacet
  facet normal 1.839020e-16 -2.588190e-01 -9.659258e-01
    outer loop
      vertex   6.500000e+00 1.515000e+01 5.649038e+00
      vertex   9.000000e+00 1.515000e+01 5.649038e+00
      vertex   9.000000e+00 1.440000e+01 5.850000e+00
    endloop
  endfacet
  facet normal 3.717629e-16 -2.588190e-01 -9.659258e-01
    outer loop
      vertex   6.500000e+00 1.515000e+01 5.649038e+00
      vertex   9.000000e+00 1.440000e+01 5.850000e+00
      vertex   6.500000e+00 1.440000e+01 5.850000e+00
    endloop
  endfacet
  facet normal -3.678040e-16 2.588190e-01 -9.659258e-01
    outer loop
      vertex   6.500000e+00 1.440000e+01 5.850000e+00
      vertex   9.000000e+00 1.440000e+01 5.850000e+00
      vertex   9.000000e+00 1.365000e+01 5.649038e+00
    endloop
  endfacet
  facet normal -5.576444e-16 2.588190e-01 -9.659258e-01
    outer loop
      vertex   6.500000e+00 1.440000e+01 5.850000e+00
      vertex   9.000000e+00 1.365000e+01 5.649038e+00
      vertex   6.500000e+00 1.365000e+01 5.649038e+00
    endloop
  endfacet
  facet normal -1.507289e-15 7.071068e-01 -7.071068e-01
    outer loop
      vertex   6.500000e+00 1.365000e+01 5.649038e+00
      vertex   9.000000e+00 1.365000e+01 5.649038e+00
      vertex   9.000000e+00 1.310096e+01 5.100000e+00
    endloop
  endfacet
  facet normal -1.515649e-15 7.071068e-01 -7.071068e-01
    outer loop
      vertex   6.500000e+00 1.365000e+01 5.649038e+00
      vertex   9.000000e+00 1.310096e+01 5.100000e+00
      vertex   6.500000e+00 1.310096e+01 5.100000e+00
    endloop
  endfacet
  facet normal -2.058995e-15 9.659258e-01 -2.588190e-01
    outer loop
      vertex   6.500000e+00 1.310096e+01 5.100000e+00
      vertex   9.000000e+00 1.310096e+01 5.100000e+00
      vertex   9.000000e+00 1.290000e+01 4.350000e+00
    endloop
  endfacet
  facet normal -1.372663e-15 9.659258e-01 -2.588190e-01
    outer loop
      vertex   6.500000e+00 1.310096e+01 5.100000e+00
      vertex   9.000000e+00 1.290000e+01 4.350000e+00
      vertex   6.500000e+00 1.290000e+01 4.350000e+00
    endloop
  endfacet
  facet normal -1.372663e-15 9.659258e-01 2.588190e-01
    outer loop
      vertex   6.500000e+00 1.290000e+01 4.350000e+00
      vertex   9.000000e+00 1.290000e+01 4.350000e+00
      vertex   9.000000e+00 1.310096e+01 3.600000e+00
    endloop
  endfacet
  facet normal -2.058995e-15 9.659258e-01 2.588190e-01
    outer loop
      vertex   6.500000e+00 1.290000e+01 4.350000e+00
      vertex   9.000000e+00 1.310096e+01 3.600000e+00
      vertex   6.500000e+00 1.310096e+01 3.600000e+00
    endloop
  endfacet
  facet normal -1.507289e-15 7.071068e-01 7.071068e-01
    outer loop
      vertex   6.500000e+00 1.310096e+01 3.600000e+00
      vertex   9.000000e+00 1.310096e+01 3.600000e+00
      vertex   9.000000e+00 1.365000e+01 3.050962e+00
    endloop
  endfacet
  facet normal 0.000000e+00 -0.000000e+00 1.000000e+00
    outer loop
      vertex   6.500000e+00 -1.675000e+01 1.300000e+01
      vertex   9.000000e+00 -1.675000e+01 1.300000e+01
      vertex   6.500000e+00 1.675000e+01 1.300000e+01
    endloop
  endfacet
  facet normal -0.000000e+00 0.000000e+00 1.000000e+00
    outer loop
      vertex   6.500000e+00 1.675000e+01 1.300000e+01
      vertex   9.000000e+00 -1.675000e+01 1.300000e+01
      vertex   9.000000e+00 1.675000e+01 1.300000e+01
    endloop
  endfacet
  facet normal 0.000000e+00 0.000000e+00 -1.000000e+00
    outer loop
      vertex   6.500000e+00 1.175000e+01 1.100000e+01
      vertex   9.000000e+00 1.175000e+01 1.100000e+01
      vertex   6.500000e+00 -1.175000e+01 1.100000e+01
    endloop
  endfacet
  facet normal 0.000000e+00 0.000000e+00 -1.000000e+00
    outer loop
      vertex   6.500000e+00 -1.175000e+01 1.100000e+01
      vertex   9.000000e+00 1.175000e+01 1.100000e+01
      vertex   9.000000e+00 -1.175000e+01 1.100000e+01
    endloop
  endfacet
  facet normal 0.000000e+00 -1.000000e+00 0.000000e+00
    outer loop
      vertex   6.500000e+00 -1.675000e+01 0.000000e+00
      vertex   9.000000e+00 -1.675000e+01 0.000000e+00
      vertex   6.500000e+00 -1.675000e+01 1.300000e+01
    endloop
  endfacet
  facet normal 0.000000e+00 -1.000000e+00 0.000000e+00
    outer loop
      vertex   6.500000e+00 -1.675000e+01 1.300000e+01
      vertex   9.000000e+00 -1.675000e+01 0.000000e+00
      vertex   9.000000e+00 -1.675000e+01 1.300000e+01
    endloop
  endfacet
  facet normal 0.000000e+00 1.000000e+00 -0.000000e+00
    outer loop
      vertex   9.000000e+00 1.675000e+01 0.000000e+00
      vertex   6.500000e+00 1.675000e+01 0.000000e+00
      vertex   9.000000e+00 1.675000e+01 1.300000e+01
    endloop
  endfacet
  facet normal 0.000000e+00 1.000000e+00 0.000000e+00
    outer loop
      vertex   9.000000e+00 1.675000e+01 1.300000e+01
      vertex   6.500000e+00 1.675000e+01 0.000000e+00
      vertex   6.500000e+00 1.675000e+01 1.300000e+01
    endloop
  endfacet
  facet normal 1.000000e+00 -2.872517e-15 -1.072038e-14
    outer loop
      vertex   9.000000e+00 -1.515000e+01 3.050962e+00
      vertex   9.000000e+00 -1.675000e+01 0.000000e+00
      vertex   9.000000e+00 -1.440000e+01 2.850000e+00
    endloop
  endfacet
  facet normal 1.000000e+00 0.000000e+00 -1.308895e-14
    outer loop
      vertex   9.000000e+00 -1.440000e+01 2.850000e+00
      vertex   9.000000e+00 -1.675000e+01 0.000000e+00
      vertex   9.000000e+00 -1.175000e+01 0.000000e+00
    endloop
  endfacet
  facet normal 1.000000e+00 2.807657e-15 -1.047832e-14
    outer loop
      vertex   9.000000e+00 -1.440000e+01 2.850000e+00
      vertex   9.000000e+00 -1.175000e+01 0.000000e+00
      vertex   9.000000e+00 -1.365000e+01 3.050962e+00
    endloop
  endfacet
  facet normal 1.000000e+00 7.534595e-15 -7.534595e-15
    outer loop
      vertex   9.000000e+00 -1.365000e+01 3.050962e+00
      vertex   9.000000e+00 -1.175000e+01 0.000000e+00
      vertex   9.000000e+00 -1.310096e+01 3.600000e+00
    endloop
  endfacet
  facet normal 1.000000e+00 1.610979e-14 -4.316606e-15
    outer loop
      vertex   9.000000e+00 -1.310096e+01 3.600000e+00
      vertex   9.000000e+00 -1.175000e+01 0.000000e+00
      vertex   9.000000e+00 -1.290000e+01 4.350000e+00
    endloop
  endfacet
  facet normal 1.000000e+00 3.243782e-14 0.000000e+00
    outer loop
      vertex   9.000000e+00 -1.290000e+01 4.350000e+00
      vertex   9.000000e+00 -1.175000e+01 0.000000e+00
      vertex   9.000000e+00 -1.175000e+01 1.100000e+01
    endloop
  endfacet
  facet normal 1.000000e+00 1.272348e-14 3.409247e-15
    outer loop
      vertex   9.000000e+00 -1.290000e+01 4.350000e+00
      vertex   9.000000e+00 -1.175000e+01 1.100000e+01
      vertex   9.000000e+00 -1.310096e+01 5.100000e+00
    endloop
  endfacet
  facet normal 1.000000e+00 5.144627e-15 5.144627e-15
    outer loop
      vertex   9.000000e+00 -1.310096e+01 5.100000e+00
      vertex   9.000000e+00 -1.175000e+01 1.100000e+01
      vertex   9.000000e+00 -1.365000e+01 5.649038e+00
    endloop
  endfacet
  facet normal 1.000000e+00 1.705688e-15 6.365713e-15
    outer loop
      vertex   9.000000e+00 -1.365000e+01 5.649038e+00
      vertex   9.000000e+00 -1.175000e+01 1.100000e+01
      vertex   9.000000e+00 -1.440000e+01 5.850000e+00
    endloop
  endfacet
  facet normal 1.000000e+00 -2.251259e-15 8.401811e-15
    outer loop
      vertex   9.000000e+00 -1.440000e+01 5.850000e+00
      vertex   9.000000e+00 -1.175000e+01 1.100000e+01
      vertex   9.000000e+00 -1.515000e+01 5.649038e+00
    endloop
  endfacet
  facet normal 1.000000e+00 2.223436e-15 5.558591e-15
    outer loop
      vertex   9.000000e+00 -1.515000e+01 5.649038e+00
      vertex   9.000000e+00 -1.175000e+01 1.100000e+01
      vertex   9.000000e+00 -1.675000e+01 1.300000e+01
    endloop
  endfacet
  facet normal 1.000000e+00 -4.167540e-15 4.167540e-15
    outer loop
      vertex   9.000000e+00 -1.515000e+01 5.649038e+00
      vertex   9.000000e+00 -1.675000e+01 1.300000e+01
      vertex   9.000000e+00 -1.569904e+01 5.100000e+00
    endloop
  endfacet
  facet normal 1.000000e+00 -1.177598e-14 3.155365e-15
    outer loop
      vertex   9.000000e+00 -1.569904e+01 5.100000e+00
      vertex   9.000000e+00 -1.675000e+01 1.300000e+01
      vertex   9.000000e+00 -1.590000e+01 4.350000e+00
    endloop
  endfacet
  facet normal 1.000000e+00 -4.388646e-14 0.000000e+00
    outer loop
      vertex   9.000000e+00 -1.590000e+01 4.350000e+00
      vertex   9.000000e+00 -1.675000e+01 1.300000e+01
      vertex   9.000000e+00 -1.675000e+01 0.000000e+00
    endloop
  endfacet
  facet normal 1.000000e+00 -1.850758e-14 -4.959092e-15
    outer loop
      vertex   9.000000e+00 -1.590000e+01 4.350000e+00
      vertex   9.000000e+00 -1.675000e+01 0.000000e+00
      vertex   9.000000e+00 -1.569904e+01 3.600000e+00
    endloop
  endfacet
  facet normal 1.000000e+00 -8.020598e-15 -8.020598e-15
    outer loop
      vertex   9.000000e+00 -1.569904e+01 3.600000e+00
      vertex   9.000000e+00 -1.675000e+01 0.000000e+00
      vertex   9.000000e+00 -1.515000e+01 3.050962e+00
    endloop
  endfacet
  facet normal 1.000000e+00 -2.673959e-16 -9.979350e-16
    outer loop
      vertex   9.000000e+00 1.365000e+01 3.050962e+00
      vertex   9.000000e+00 1.175000e+01 0.000000e+00
      vertex   9.000000e+00 1.440000e+01 2.850000e+00
    endloop
  endfacet
  facet normal 1.000000e+00 0.000000e+00 -1.246566e-15
    outer loop
      vertex   9.000000e+00 1.440000e+01 2.850000e+00
      vertex   9.000000e+00 1.175000e+01 0.000000e+00
      vertex   9.000000e+00 1.675000e+01 0.000000e+00
    endloop
  endfacet
  facet normal 1.000000e+00 2.735730e-16 -1.020988e-15
    outer loop
      vertex   9.000000e+00 1.440000e+01 2.850000e+00
      vertex   9.000000e+00 1.675000e+01 0.000000e+00
      vertex   9.000000e+00 1.515000e+01 3.050962e+00
    endloop
  endfacet
  facet normal 1.000000e+00 7.638664e-16 -7.638664e-16
    outer loop
      vertex   9.000000e+00 1.515000e+01 3.050962e+00
      vertex   9.000000e+00 1.675000e+01 0.000000e+00
      vertex   9.000000e+00 1.569904e+01 3.600000e+00
    endloop
  endfacet
  facet normal 1.000000e+00 1.762627e-15 -4.722944e-16
    outer loop
      vertex   9.000000e+00 1.569904e+01 3.600000e+00
      vertex   9.000000e+00 1.675000e+01 0.000000e+00
      vertex   9.000000e+00 1.590000e+01 4.350000e+00
    endloop
  endfacet
  facet normal 1.000000e+00 4.179663e-15 0.000000e+00
    outer loop
      vertex   9.000000e+00 1.590000e+01 4.350000e+00
      vertex   9.000000e+00 1.675000e+01 0.000000e+00
      vertex   9.000000e+00 1.675000e+01 1.300000e+01
    endloop
  endfacet
  facet normal 1.000000e+00 1.121522e-15 3.005110e-16
    outer loop
      vertex   9.000000e+00 1.590000e+01 4.350000e+00
      vertex   9.000000e+00 1.675000e+01 1.300000e+01
      vertex   9.000000e+00 1.569904e+01 5.100000e+00
    endloop
  endfacet
  facet normal 1.000000e+00 3.969086e-16 3.969086e-16
    outer loop
      vertex   9.000000e+00 1.569904e+01 5.100000e+00
      vertex   9.000000e+00 1.675000e+01 1.300000e+01
      vertex   9.000000e+00 1.515000e+01 5.649038e+00
    endloop
  endfacet
  facet normal 1.000000e+00 -2.117559e-16 5.293896e-16
    outer loop
      vertex   9.000000e+00 1.515000e+01 5.649038e+00
      vertex   9.000000e+00 1.675000e+01 1.300000e+01
      vertex   9.000000e+00 1.175000e+01 1.100000e+01
    endloop
  endfacet
  facet normal 1.000000e+00 2.144056e-16 8.001725e-16
    outer loop
      vertex   9.000000e+00 1.515000e+01 5.649038e+00
      vertex   9.000000e+00 1.175000e+01 1.100000e+01
      vertex   9.000000e+00 1.440000e+01 5.850000e+00
    endloop
  endfacet
  facet normal 1.000000e+00 -1.624464e-16 6.062584e-16
    outer loop
      vertex   9.000000e+00 1.440000e+01 5.850000e+00
      vertex   9.000000e+00 1.175000e+01 1.100000e+01
      vertex   9.000000e+00 1.365000e+01 5.649038e+00
    endloop
  endfacet
  facet normal 1.000000e+00 -4.899645e-16 4.899645e-16
    outer loop
      vertex   9.000000e+00 1.365000e+01 5.649038e+00
      vertex   9.000000e+00 1.175000e+01 1.100000e+01
      vertex   9.000000e+00 1.310096e+01 5.100000e+00
    endloop
  endfacet
  facet normal 1.000000e+00 -1.211760e-15 3.246902e-16
    outer loop
      vertex   9.000000e+00 1.310096e+01 5.100000e+00
      vertex   9.000000e+00 1.175000e+01 1.100000e+01
      vertex   9.000000e+00 1.290000e+01 4.350000e+00
    endloop
  endfacet
  facet normal 1.000000e+00 -3.089316e-15 0.000000e+00
    outer loop
      vertex   9.000000e+00 1.290000e+01 4.350000e+00
      vertex   9.000000e+00 1.175000e+01 1.100000e+01
      vertex   9.000000e+00 1.175000e+01 0.000000e+00
    endloop
  endfacet
  facet normal 1.000000e+00 -1.534266e-15 -4.111053e-16
    outer loop
      vertex   9.000000e+00 1.290000e+01 4.350000e+00
      vertex   9.000000e+00 1.175000e+01 0.000000e+00
      vertex   9.000000e+00 1.310096e+01 3.600000e+00
    endloop
  endfacet
  facet normal 1.000000e+00 -7.175805e-16 -7.175805e-16
    outer loop
      vertex   9.000000e+00 1.310096e+01 3.600000e+00
      vertex   9.000000e+00 1.175000e+01 0.000000e+00
      vertex   9.000000e+00 1.365000e+01 3.050962e+00
    endloop
  endfacet
  facet normal 1.000000e+00 5.302558e-17 -1.325639e-16
    outer loop
      vertex   9.000000e+00 1.675000e+01 1.300000e+01
      vertex   9.000000e+00 -1.675000e+01 1.300000e+01
      vertex   9.000000e+00 1.175000e+01 1.100000e+01
    endloop
  endfacet
  facet normal 1.000000e+00 7.558965e-17 1.889741e-16
    outer loop
      vertex   9.000000e+00 1.175000e+01 1.100000e+01
      vertex   9.000000e+00 -1.675000e+01 1.300000e+01
      vertex   9.000000e+00 -1.175000e+01 1.100000e+01
    endloop
  endfacet
  facet normal 0.000000e+00 0.000000e+00 1.000000e+00
    outer loop
      vertex   1.079904e+01 -2.165000e+01 0.000000e+00
      vertex   1.100000e+01 -2.240000e+01 0.000000e+00
      vertex   1.425000e+01 -2.500000e+01 0.000000e+00
    endloop
  endfacet
  facet normal 0.000000e+00 0.000000e+00 1.000000e+00
    outer loop
      vertex   1.425000e+01 -2.500000e+01 0.000000e+00
      vertex   1.100000e+01 -2.240000e+01 0.000000e+00
      vertex   1.079904e+01 -2.315000e+01 0.000000e+00
    endloop
  endfacet
  facet normal 0.000000e+00 0.000000e+00 1.000000e+00
    outer loop
      vertex   1.425000e+01 -2.500000e+01 0.000000e+00
      vertex   1.079904e+01 -2.315000e+01 0.000000e+00
      vertex   1.025000e+01 -2.369904e+01 0.000000e+00
    endloop
  endfacet
  facet normal 0.000000e+00 0.000000e+00 1.000000e+00
    outer loop
      vertex   1.025000e+01 -2.369904e+01 0.000000e+00
      vertex   9.500000e+00 -2.390000e+01 0.000000e+00
      vertex   1.425000e+01 -2.500000e+01 0.000000e+00
    endloop
  endfacet
  facet normal 0.000000e+00 0.000000e+00 1.000000e+00
    outer loop
      vertex   1.425000e+01 -2.500000e+01 0.000000e+00
      vertex   9.500000e+00 -2.390000e+01 0.000000e+00
      vertex   7.000000e+00 -2.500000e+01 0.000000e+00
    endloop
  endfacet
  facet normal 0.000000e+00 0.000000e+00 1.000000e+00
    outer loop
      vertex   7.000000e+00 -2.500000e+01 0.000000e+00
      vertex   9.500000e+00 -2.390000e+01 0.000000e+00
      vertex   8.750000e+00 -2.369904e+01 0.000000e+00
    endloop
  endfacet
  facet normal 0.000000e+00 0.000000e+00 1.000000e+00
    outer loop
      vertex   7.000000e+00 -2.500000e+01 0.000000e+00
      vertex   8.750000e+00 -2.369904e+01 0.000000e+00
      vertex   8.200962e+00 -2.315000e+01 0.000000e+00
    endloop
  endfacet
  facet normal 0.000000e+00 0.000000e+00 1.000000e+00
    outer loop
      vertex   8.200962e+00 -2.315000e+01 0.000000e+00
      vertex   8.000000e+00 -2.240000e+01 0.000000e+00
      vertex   7.000000e+00 -2.500000e+01 0.000000e+00
    endloop
  endfacet
  facet normal 0.000000e+00 -0.000000e+00 1.000000e+00
    outer loop
      vertex   7.000000e+00 -2.500000e+01 0.000000e+00
      vertex   8.000000e+00 -2.240000e+01 0.000000e+00
      vertex   4.000000e+00 -1.675000e+01 0.000000e+00
    endloop
  endfacet
  facet normal 0.000000e+00 0.000000e+00 1.000000e+00
    outer loop
      vertex   7.000000e+00 -2.500000e+01 0.000000e+00
      vertex   4.000000e+00 -1.675000e+01 0.000000e+00
      vertex   -8.212732e-16 -1.800000e+01 0.000000e+00
    endloop
  endfacet
  facet normal 0.000000e+00 0.000000e+00 1.000000e+00
    outer loop
      vertex   -8.212732e-16 -1.800000e+01 0.000000e+00
      vertex   4.000000e+00 -1.675000e+01 0.000000e+00
      vertex   4.000000e+00 -1.175000e+01 0.000000e+00
    endloop
  endfacet
  facet normal 0.000000e+00 -0.000000e+00 1.000000e+00
    outer loop
      vertex   -8.212732e-16 -1.800000e+01 0.000000e+00
      vertex   4.000000e+00 -1.175000e+01 0.000000e+00
      vertex   -2.000000e+00 -1.175000e+01 0.000000e+00
    endloop
  endfacet
  facet normal -0.000000e+00 0.000000e+00 1.000000e+00
    outer loop
      vertex   4.000000e+00 -1.675000e+01 0.000000e+00
      vertex   8.000000e+00 -2.240000e+01 0.000000e+00
      vertex   6.500000e+00 -1.675000e+01 0.000000e+00
    endloop
  endfacet
  facet normal 0.000000e+00 0.000000e+00 1.000000e+00
    outer loop
      vertex   6.500000e+00 -1.675000e+01 0.000000e+00
      vertex   8.000000e+00 -2.240000e+01 0.000000e+00
      vertex   8.200962e+00 -2.165000e+01 0.000000e+00
    endloop
  endfacet
  facet normal 0.000000e+00 0.000000e+00 1.000000e+00
    outer loop
      vertex   6.500000e+00 -1.675000e+01 0.000000e+00
      vertex   8.200962e+00 -2.165000e+01 0.000000e+00
      vertex   8.750000e+00 -2.110096e+01 0.000000e+00
    endloop
  endfacet
  facet normal -0.000000e+00 0.000000e+00 1.000000e+00
    outer loop
      vertex   6.500000e+00 -1.675000e+01 0.000000e+00
      vertex   8.750000e+00 -2.110096e+01 0.000000e+00
      vertex   9.000000e+00 -1.675000e+01 0.000000e+00
    endloop
  endfacet
  facet normal 0.000000e+00 0.000000e+00 1.000000e+00
    outer loop
      vertex   9.000000e+00 -1.675000e+01 0.000000e+00
      vertex   8.750000e+00 -2.110096e+01 0.000000e+00
      vertex   9.500000e+00 -2.090000e+01 0.000000e+00
    endloop
  endfacet
  facet normal 0.000000e+00 0.000000e+00 1.000000e+00
    outer loop
      vertex   9.000000e+00 -1.675000e+01 0.000000e+00
      vertex   9.500000e+00 -2.090000e+01 0.000000e+00
      vertex   1.025000e+01 -2.110096e+01 0.000000e+00
    endloop
  endfacet
  facet normal -0.000000e+00 -0.000000e+00 1.000000e+00
    outer loop
      vertex   1.025000e+01 -2.110096e+01 0.000000e+00
      vertex   1.079904e+01 -2.165000e+01 0.000000e+00
      vertex   9.000000e+00 -1.675000e+01 0.000000e+00
    endloop
  endfacet
  facet normal -0.000000e+00 0.000000e+00 1.000000e+00
    outer loop
      vertex   9.000000e+00 -1.675000e+01 0.000000e+00
      vertex   1.079904e+01 -2.165000e+01 0.000000e+00
      vertex   9.000000e+00 -1.175000e+01 0.000000e+00
    endloop
  endfacet
  facet normal -0.000000e+00 0.000000e+00 1.000000e+00
    outer loop
      vertex   9.000000e+00 -1.175000e+01 0.000000e+00
      vertex   1.079904e+01 -2.165000e+01 0.000000e+00
      vertex   2.250000e+01 -1.175000e+01 0.000000e+00
    endloop
  endfacet
  facet normal 0.000000e+00 0.000000e+00 1.000000e+00
    outer loop
      vertex   2.250000e+01 -1.175000e+01 0.000000e+00
      vertex   1.079904e+01 -2.165000e+01 0.000000e+00
      vertex   1.425000e+01 -2.500000e+01 0.000000e+00
    endloop
  endfacet
  facet normal 0.000000e+00 0.000000e+00 1.000000e+00
    outer loop
      vertex   2.250000e+01 -1.175000e+01 0.000000e+00
      vertex   1.425000e+01 -2.500000e+01 0.000000e+00
      vertex   2.500000e+01 -1.425000e+01 0.000000e+00
    endloop
  endfacet
  facet normal -0.000000e+00 0.000000e+00 1.000000e+00
    outer loop
      vertex   1.079904e+01 2.315000e+01 0.000000e+00
      vertex   1.100000e+01 2.240000e+01 0.000000e+00
      vertex   1.425000e+01 2.500000e+01 0.000000e+00
    endloop
  endfacet
  facet normal 0.000000e+00 0.000000e+00 1.000000e+00
    outer loop
      vertex   1.425000e+01 2.500000e+01 0.000000e+00
      vertex   1.100000e+01 2.240000e+01 0.000000e+00
      vertex   1.079904e+01 2.165000e+01 0.000000e+00
    endloop
  endfacet
  facet normal 0.000000e+00 0.000000e+00 1.000000e+00
    outer loop
      vertex   1.425000e+01 2.500000e+01 0.000000e+00
      vertex   1.079904e+01 2.165000e+01 0.000000e+00
      vertex   2.250000e+01 1.175000e+01 0.000000e+00
    endloop
  endfacet
  facet normal 0.000000e+00 0.000000e+00 1.000000e+00
    outer loop
      vertex   2.250000e+01 1.175000e+01 0.000000e+00
      vertex   1.079904e+01 2.165000e+01 0.000000e+00
      vertex   9.000000e+00 1.175000e+01 0.000000e+00
    endloop
  endfacet
  facet normal 0.000000e+00 0.000000e+00 1.000000e+00
    outer loop
      vertex   9.000000e+00 1.175000e+01 0.000000e+00
      vertex   1.079904e+01 2.165000e+01 0.000000e+00
      vertex   9.000000e+00 1.675000e+01 0.000000e+00
    endloop
  endfacet
  facet normal 0.000000e+00 0.000000e+00 1.000000e+00
    outer loop
      vertex   9.000000e+00 1.675000e+01 0.000000e+00
      vertex   1.079904e+01 2.165000e+01 0.000000e+00
      vertex   1.025000e+01 2.110096e+01 0.000000e+00
    endloop
  endfacet
  facet normal 0.000000e+00 0.000000e+00 1.000000e+00
    outer loop
      vertex   9.000000e+00 1.675000e+01 0.000000e+00
      vertex   1.025000e+01 2.110096e+01 0.000000e+00
      vertex   9.500000e+00 2.090000e+01 0.000000e+00
    endloop
  endfacet
  facet normal 0.000000e+00 0.000000e+00 1.000000e+00
    outer loop
      vertex   9.500000e+00 2.090000e+01 0.000000e+00
      vertex   8.750000e+00 2.110096e+01 0.000000e+00
      vertex   9.000000e+00 1.675000e+01 0.000000e+00
    endloop
  endfacet
  facet normal 0.000000e+00 0.000000e+00 1.000000e+00
    outer loop
      vertex   9.000000e+00 1.675000e+01 0.000000e+00
      vertex   8.750000e+00 2.110096e+01 0.000000e+00
      vertex   6.500000e+00 1.675000e+01 0.000000e+00
    endloop
  endfacet
  facet normal 0.000000e+00 0.000000e+00 1.000000e+00
    outer loop
      vertex   6.500000e+00 1.675000e+01 0.000000e+00
      vertex   8.750000e+00 2.110096e+01 0.000000e+00
      vertex   8.200962e+00 2.165000e+01 0.000000e+00
    endloop
  endfacet
  facet normal 0.000000e+00 0.000000e+00 1.000000e+00
    outer loop
      vertex   6.500000e+00 1.675000e+01 0.000000e+00
      vertex   8.200962e+00 2.165000e+01 0.000000e+00
      vertex   8.000000e+00 2.240000e+01 0.000000e+00
    endloop
  endfacet
  facet normal 0.000000e+00 0.000000e+00 1.000000e+00
    outer loop
      vertex   8.200962e+00 2.315000e+01 0.000000e+00
      vertex   7.000000e+00 2.500000e+01 0.000000e+00
      vertex   8.000000e+00 2.240000e+01 0.000000e+00
    endloop
  endfacet
  facet normal 0.000000e+00 0.000000e+00 1.000000e+00
    outer loop
      vertex   8.000000e+00 2.240000e+01 0.000000e+00
      vertex   7.000000e+00 2.500000e+01 0.000000e+00
      vertex   4.000000e+00 1.675000e+01 0.000000e+00
    endloop
  endfacet
  facet normal 0.000000e+00 0.000000e+00 1.000000e+00
    outer loop
      vertex   8.000000e+00 2.240000e+01 0.000000e+00
      vertex   4.000000e+00 1.675000e+01 0.000000e+00
      vertex   6.500000e+00 1.675000e+01 0.000000e+00
    endloop
  endfacet
  facet normal 0.000000e+00 -0.000000e+00 1.000000e+00
    outer loop
      vertex   8.200962e+00 2.315000e+01 0.000000e+00
      vertex   8.750000e+00 2.369904e+01 0.000000e+00
      vertex   7.000000e+00 2.500000e+01 0.000000e+00
    endloop
  endfacet
  facet normal 0.000000e+00 0.000000e+00 1.000000e+00
    outer loop
      vertex   7.000000e+00 2.500000e+01 0.000000e+00
      vertex   8.750000e+00 2.369904e+01 0.000000e+00
      vertex   9.500000e+00 2.390000e+01 0.000000e+00
    endloop
  endfacet
  facet normal -0.000000e+00 0.000000e+00 1.000000e+00
    outer loop
      vertex   7.000000e+00 2.500000e+01 0.000000e+00
      vertex   9.500000e+00 2.390000e+01 0.000000e+00
      vertex   1.425000e+01 2.500000e+01 0.000000e+00
    endloop
  endfacet
  facet normal 0.000000e+00 0.000000e+00 1.000000e+00
    outer loop
      vertex   1.425000e+01 2.500000e+01 0.000000e+00
      vertex   9.500000e+00 2.390000e+01 0.000000e+00
      vertex   1.025000e+01 2.369904e+01 0.000000e+00
    endloop
  endfacet
  facet normal 0.000000e+00 0.000000e+00 1.000000e+00
    outer loop
      vertex   1.425000e+01 2.500000e+01 0.000000e+00
      vertex   1.025000e+01 2.369904e+01 0.000000e+00
      vertex   1.079904e+01 2.315000e+01 0.000000e+00
    endloop
  endfacet
  facet normal 0.000000e+00 0.000000e+00 1.000000e+00
    outer loop
      vertex   -2.000000e+00 -1.175000e+01 0.000000e+00
      vertex   -2.000000e+00 -1.800000e+01 0.000000e+00
      vertex   -8.212732e-16 -1.800000e+01 0.000000e+00
    endloop
  endfacet
  facet normal -0.000000e+00 0.000000e+00 1.000000e+00
    outer loop
      vertex   2.250000e+01 -1.175000e+01 0.000000e+00
      vertex   2.500000e+01 -1.425000e+01 0.000000e+00
      vertex   2.250000e+01 1.175000e+01 0.000000e+00
    endloop
  endfacet
  facet normal -0.000000e+00 0.000000e+00 1.000000e+00
    outer loop
      vertex   2.250000e+01 1.175000e+01 0.000000e+00
      vertex   2.500000e+01 -1.425000e+01 0.000000e+00
      vertex   2.500000e+01 1.425000e+01 0.000000e+00
    endloop
  endfacet
  facet normal 0.000000e+00 -0.000000e+00 1.000000e+00
    outer loop
      vertex   2.250000e+01 1.175000e+01 0.000000e+00
      vertex   2.500000e+01 1.425000e+01 0.000000e+00
      vertex   1.425000e+01 2.500000e+01 0.000000e+00
    endloop
  endfacet
  facet normal 0.000000e+00 0.000000e+00 1.000000e+00
    outer loop
      vertex   7.000000e+00 2.500000e+01 0.000000e+00
      vertex   -8.172506e-16 1.800000e+01 0.000000e+00
      vertex   4.000000e+00 1.675000e+01 0.000000e+00
    endloop
  endfacet
  facet normal 0.000000e+00 0.000000e+00 1.000000e+00
    outer loop
      vertex   4.000000e+00 1.675000e+01 0.000000e+00
      vertex   -8.172506e-16 1.800000e+01 0.000000e+00
      vertex   4.000000e+00 1.175000e+01 0.000000e+00
    endloop
  endfacet
  facet normal 0.000000e+00 0.000000e+00 1.000000e+00
    outer loop
      vertex   4.000000e+00 1.175000e+01 0.000000e+00
      vertex   -8.172506e-16 1.800000e+01 0.000000e+00
      vertex   -2.000000e+00 1.175000e+01 0.000000e+00
    endloop
  endfacet
  facet normal 0.000000e+00 -0.000000e+00 1.000000e+00
    outer loop
      vertex   -2.000000e+00 1.175000e+01 0.000000e+00
      vertex   -8.172506e-16 1.800000e+01 0.000000e+00
      vertex   -2.000000e+00 1.800000e+01 0.000000e+00
    endloop
  endfacet
  facet normal -9.659258e-01 2.588190e-01 0.000000e+00
    outer loop
      vertex   1.079904e+01 -2.315000e+01 -2.000000e+00
      vertex   1.079904e+01 -2.315000e+01 0.000000e+00
      vertex   1.100000e+01 -2.240000e+01 -2.000000e+00
    endloop
  endfacet
  facet normal -9.659258e-01 2.588190e-01 -4.597550e-16
    outer loop
      vertex   1.100000e+01 -2.240000e+01 -2.000000e+00
      vertex   1.079904e+01 -2.315000e+01 0.000000e+00
      vertex   1.100000e+01 -2.240000e+01 0.000000e+00
    endloop
  endfacet
  facet normal -9.659258e-01 -2.588190e-01 4.597550e-16
    outer loop
      vertex   1.100000e+01 -2.240000e+01 -2.000000e+00
      vertex   1.100000e+01 -2.240000e+01 0.000000e+00
      vertex   1.079904e+01 -2.165000e+01 -2.000000e+00
    endloop
  endfacet
  facet normal -9.659258e-01 -2.588190e-01 0.000000e+00
    outer loop
      vertex   1.079904e+01 -2.165000e+01 -2.000000e+00
      vertex   1.100000e+01 -2.240000e+01 0.000000e+00
      vertex   1.079904e+01 -2.165000e+01 0.000000e+00
    endloop
  endfacet
  facet normal -7.071068e-01 -7.071068e-01 0.000000e+00
    outer loop
      vertex   1.079904e+01 -2.165000e+01 -2.000000e+00
      vertex   1.079904e+01 -2.165000e+01 0.000000e+00
      vertex   1.025000e+01 -2.110096e+01 0.000000e+00
    endloop
  endfacet
  facet normal -7.071068e-01 7.071068e-01 0.000000e+00
    outer loop
      vertex   1.079904e+01 -2.315000e+01 -2.000000e+00
      vertex   1.025000e+01 -2.369904e+01 -2.000000e+00
      vertex   1.079904e+01 -2.315000e+01 0.000000e+00
    endloop
  endfacet
  facet normal -7.071068e-01 7.071068e-01 0.000000e+00
    outer loop
      vertex   1.079904e+01 -2.315000e+01 0.000000e+00
      vertex   1.025000e+01 -2.369904e+01 -2.000000e+00
      vertex   1.025000e+01 -2.369904e+01 0.000000e+00
    endloop
  endfacet
  facet normal -2.588190e-01 9.659258e-01 0.000000e+00
    outer loop
      vertex   1.025000e+01 -2.369904e+01 0.000000e+00
      vertex   1.025000e+01 -2.369904e+01 -2.000000e+00
      vertex   9.500000e+00 -2.390000e+01 -2.000000e+00
    endloop
  endfacet
  facet normal -2.588190e-01 9.659258e-01 0.000000e+00
    outer loop
      vertex   1.025000e+01 -2.369904e+01 0.000000e+00
      vertex   9.500000e+00 -2.390000e+01 -2.000000e+00
      vertex   9.500000e+00 -2.390000e+01 0.000000e+00
    endloop
  endfacet
  facet normal 2.588190e-01 9.659258e-01 0.000000e+00
    outer loop
      vertex   9.500000e+00 -2.390000e+01 0.000000e+00
      vertex   9.500000e+00 -2.390000e+01 -2.000000e+00
      vertex   8.750000e+00 -2.369904e+01 -2.000000e+00
    endloop
  endfacet
  facet normal 2.588190e-01 9.659258e-01 -2.323518e-16
    outer loop
      vertex   9.500000e+00 -2.390000e+01 0.000000e+00
      vertex   8.750000e+00 -2.369904e+01 -2.000000e+00
      vertex   8.750000e+00 -2.369904e+01 0.000000e+00
    endloop
  endfacet
  facet normal 7.071068e-01 7.071068e-01 -6.280370e-16
    outer loop
      vertex   8.750000e+00 -2.369904e+01 0.000000e+00
      vertex   8.750000e+00 -2.369904e+01 -2.000000e+00
      vertex   8.200962e+00 -2.315000e+01 -2.000000e+00
    endloop
  endfacet
  facet normal 7.071068e-01 7.071068e-01 0.000000e+00
    outer loop
      vertex   8.750000e+00 -2.369904e+01 0.000000e+00
      vertex   8.200962e+00 -2.315000e+01 -2.000000e+00
      vertex   8.200962e+00 -2.315000e+01 0.000000e+00
    endloop
  endfacet
  facet normal 9.659258e-01 2.588190e-01 0.000000e+00
    outer loop
      vertex   8.200962e+00 -2.315000e+01 0.000000e+00
      vertex   8.200962e+00 -2.315000e+01 -2.000000e+00
      vertex   8.000000e+00 -2.240000e+01 -2.000000e+00
    endloop
  endfacet
  facet normal 9.659258e-01 2.588190e-01 0.000000e+00
    outer loop
      vertex   8.200962e+00 -2.315000e+01 0.000000e+00
      vertex   8.000000e+00 -2.240000e+01 -2.000000e+00
      vertex   8.000000e+00 -2.240000e+01 0.000000e+00
    endloop
  endfacet
  facet normal 9.659258e-01 -2.588190e-01 0.000000e+00
    outer loop
      vertex   8.000000e+00 -2.240000e+01 0.000000e+00
      vertex   8.000000e+00 -2.240000e+01 -2.000000e+00
      vertex   8.200962e+00 -2.165000e+01 -2.000000e+00
    endloop
  endfacet
  facet normal 9.659258e-01 -2.588190e-01 0.000000e+00
    outer loop
      vertex   8.000000e+00 -2.240000e+01 0.000000e+00
      vertex   8.200962e+00 -2.165000e+01 -2.000000e+00
      vertex   8.200962e+00 -2.165000e+01 0.000000e+00
    endloop
  endfacet
  facet normal 7.071068e-01 -7.071068e-01 0.000000e+00
    outer loop
      vertex   8.200962e+00 -2.165000e+01 0.000000e+00
      vertex   8.200962e+00 -2.165000e+01 -2.000000e+00
      vertex   8.750000e+00 -2.110096e+01 -2.000000e+00
    endloop
  endfacet
  facet normal 7.071068e-01 -7.071068e-01 6.434359e-16
    outer loop
      vertex   8.200962e+00 -2.165000e+01 0.000000e+00
      vertex   8.750000e+00 -2.110096e+01 -2.000000e+00
      vertex   8.750000e+00 -2.110096e+01 0.000000e+00
    endloop
  endfacet
  facet normal 2.588190e-01 -9.659258e-01 2.298775e-16
    outer loop
      vertex   8.750000e+00 -2.110096e+01 0.000000e+00
      vertex   8.750000e+00 -2.110096e+01 -2.000000e+00
      vertex   9.500000e+00 -2.090000e+01 -2.000000e+00
    endloop
  endfacet
  facet normal 2.588190e-01 -9.659258e-01 0.000000e+00
    outer loop
      vertex   8.750000e+00 -2.110096e+01 0.000000e+00
      vertex   9.500000e+00 -2.090000e+01 -2.000000e+00
      vertex   9.500000e+00 -2.090000e+01 0.000000e+00
    endloop
  endfacet
  facet normal -2.588190e-01 -9.659258e-01 -0.000000e+00
    outer loop
      vertex   9.500000e+00 -2.090000e+01 0.000000e+00
      vertex   9.500000e+00 -2.090000e+01 -2.000000e+00
      vertex   1.025000e+01 -2.110096e+01 -2.000000e+00
    endloop
  endfacet
  facet normal -2.588190e-01 -9.659258e-01 0.000000e+00
    outer loop
      vertex   9.500000e+00 -2.090000e+01 0.000000e+00
      vertex   1.025000e+01 -2.110096e+01 -2.000000e+00
      vertex   1.025000e+01 -2.110096e+01 0.000000e+00
    endloop
  endfacet
  facet normal -7.071068e-01 -7.071068e-01 -0.000000e+00
    outer loop
      vertex   1.025000e+01 -2.110096e+01 0.000000e+00
      vertex   1.025000e+01 -2.110096e+01 -2.000000e+00
      vertex   1.079904e+01 -2.165000e+01 -2.000000e+00
    endloop
  endfacet
  facet normal -9.659258e-01 2.588190e-01 0.000000e+00
    outer loop
      vertex   1.079904e+01 2.165000e+01 -2.000000e+00
      vertex   1.079904e+01 2.165000e+01 0.000000e+00
      vertex   1.100000e+01 2.240000e+01 -2.000000e+00
    endloop
  endfacet
  facet normal -9.659258e-01 2.588190e-01 0.000000e+00
    outer loop
      vertex   1.100000e+01 2.240000e+01 -2.000000e+00
      vertex   1.079904e+01 2.165000e+01 0.000000e+00
      vertex   1.100000e+01 2.240000e+01 0.000000e+00
    endloop
  endfacet
  facet normal -9.659258e-01 -2.588190e-01 0.000000e+00
    outer loop
      vertex   1.100000e+01 2.240000e+01 -2.000000e+00
      vertex   1.100000e+01 2.240000e+01 0.000000e+00
      vertex   1.079904e+01 2.315000e+01 -2.000000e+00
    endloop
  endfacet
  facet normal -9.659258e-01 -2.588190e-01 0.000000e+00
    outer loop
      vertex   1.079904e+01 2.315000e+01 -2.000000e+00
      vertex   1.100000e+01 2.240000e+01 0.000000e+00
      vertex   1.079904e+01 2.315000e+01 0.000000e+00
    endloop
  endfacet
  facet normal -7.071068e-01 -7.071068e-01 0.000000e+00
    outer loop
      vertex   1.079904e+01 2.315000e+01 -2.000000e+00
      vertex   1.079904e+01 2.315000e+01 0.000000e+00
      vertex   1.025000e+01 2.369904e+01 0.000000e+00
    endloop
  endfacet
  facet normal -7.071068e-01 7.071068e-01 0.000000e+00
    outer loop
      vertex   1.079904e+01 2.165000e+01 -2.000000e+00
      vertex   1.025000e+01 2.110096e+01 -2.000000e+00
      vertex   1.079904e+01 2.165000e+01 0.000000e+00
    endloop
  endfacet
  facet normal -7.071068e-01 7.071068e-01 1.251125e-15
    outer loop
      vertex   1.079904e+01 2.165000e+01 0.000000e+00
      vertex   1.025000e+01 2.110096e+01 -2.000000e+00
      vertex   1.025000e+01 2.110096e+01 0.000000e+00
    endloop
  endfacet
  facet normal -2.588190e-01 9.659258e-01 4.597550e-16
    outer loop
      vertex   1.025000e+01 2.110096e+01 0.000000e+00
      vertex   1.025000e+01 2.110096e+01 -2.000000e+00
      vertex   9.500000e+00 2.090000e+01 -2.000000e+00
    endloop
  endfacet
  facet normal -2.588190e-01 9.659258e-01 0.000000e+00
    outer loop
      vertex   1.025000e+01 2.110096e+01 0.000000e+00
      vertex   9.500000e+00 2.090000e+01 -2.000000e+00
      vertex   9.500000e+00 2.090000e+01 0.000000e+00
    endloop
  endfacet
  facet normal 2.588190e-01 9.659258e-01 0.000000e+00
    outer loop
      vertex   9.500000e+00 2.090000e+01 0.000000e+00
      vertex   9.500000e+00 2.090000e+01 -2.000000e+00
      vertex   8.750000e+00 2.110096e+01 -2.000000e+00
    endloop
  endfacet
  facet normal 2.588190e-01 9.659258e-01 0.000000e+00
    outer loop
      vertex   9.500000e+00 2.090000e+01 0.000000e+00
      vertex   8.750000e+00 2.110096e+01 -2.000000e+00
      vertex   8.750000e+00 2.110096e+01 0.000000e+00
    endloop
  endfacet
  facet normal 7.071068e-01 7.071068e-01 0.000000e+00
    outer loop
      vertex   8.750000e+00 2.110096e+01 0.000000e+00
      vertex   8.750000e+00 2.110096e+01 -2.000000e+00
      vertex   8.200962e+00 2.165000e+01 -2.000000e+00
    endloop
  endfacet
  facet normal 7.071068e-01 7.071068e-01 0.000000e+00
    outer loop
      vertex   8.750000e+00 2.110096e+01 0.000000e+00
      vertex   8.200962e+00 2.165000e+01 -2.000000e+00
      vertex   8.200962e+00 2.165000e+01 0.000000e+00
    endloop
  endfacet
  facet normal 9.659258e-01 2.588190e-01 0.000000e+00
    outer loop
      vertex   8.200962e+00 2.165000e+01 0.000000e+00
      vertex   8.200962e+00 2.165000e+01 -2.000000e+00
      vertex   8.000000e+00 2.240000e+01 -2.000000e+00
    endloop
  endfacet
  facet normal 9.659258e-01 2.588190e-01 0.000000e+00
    outer loop
      vertex   8.200962e+00 2.165000e+01 0.000000e+00
      vertex   8.000000e+00 2.240000e+01 -2.000000e+00
      vertex   8.000000e+00 2.240000e+01 0.000000e+00
    endloop
  endfacet
  facet normal 9.659258e-01 -2.588190e-01 0.000000e+00
    outer loop
      vertex   8.000000e+00 2.240000e+01 0.000000e+00
      vertex   8.000000e+00 2.240000e+01 -2.000000e+00
      vertex   8.200962e+00 2.315000e+01 -2.000000e+00
    endloop
  endfacet
  facet normal 9.659258e-01 -2.588190e-01 0.000000e+00
    outer loop
      vertex   8.000000e+00 2.240000e+01 0.000000e+00
      vertex   8.200962e+00 2.315000e+01 -2.000000e+00
      vertex   8.200962e+00 2.315000e+01 0.000000e+00
    endloop
  endfacet
  facet normal 7.071068e-01 -7.071068e-01 0.000000e+00
    outer loop
      vertex   8.200962e+00 2.315000e+01 0.000000e+00
      vertex   8.200962e+00 2.315000e+01 -2.000000e+00
      vertex   8.750000e+00 2.369904e+01 -2.000000e+00
    endloop
  endfacet
  facet normal 7.071068e-01 -7.071068e-01 0.000000e+00
    outer loop
      vertex   8.200962e+00 2.315000e+01 0.000000e+00
      vertex   8.750000e+00 2.369904e+01 -2.000000e+00
      vertex   8.750000e+00 2.369904e+01 0.000000e+00
    endloop
  endfacet
  facet normal 2.588190e-01 -9.659258e-01 0.000000e+00
    outer loop
      vertex   8.750000e+00 2.369904e+01 0.000000e+00
      vertex   8.750000e+00 2.369904e+01 -2.000000e+00
      vertex   9.500000e+00 2.390000e+01 -2.000000e+00
    endloop
  endfacet
  facet normal 2.588190e-01 -9.659258e-01 0.000000e+00
    outer loop
      vertex   8.750000e+00 2.369904e+01 0.000000e+00
      vertex   9.500000e+00 2.390000e+01 -2.000000e+00
      vertex   9.500000e+00 2.390000e+01 0.000000e+00
    endloop
  endfacet
  facet normal -2.588190e-01 -9.659258e-01 -0.000000e+00
    outer loop
      vertex   9.500000e+00 2.390000e+01 0.000000e+00
      vertex   9.500000e+00 2.390000e+01 -2.000000e+00
      vertex   1.025000e+01 2.369904e+01 -2.000000e+00
    endloop
  endfacet
  facet normal -2.588190e-01 -9.659258e-01 -4.647037e-16
    outer loop
      vertex   9.500000e+00 2.390000e+01 0.000000e+00
      vertex   1.025000e+01 2.369904e+01 -2.000000e+00
      vertex   1.025000e+01 2.369904e+01 0.000000e+00
    endloop
  endfacet
  facet normal -7.071068e-01 -7.071068e-01 -1.256074e-15
    outer loop
      vertex   1.025000e+01 2.369904e+01 0.000000e+00
      vertex   1.025000e+01 2.369904e+01 -2.000000e+00
      vertex   1.079904e+01 2.315000e+01 -2.000000e+00
    endloop
  endfacet
  facet normal -0.000000e+00 -1.000000e+00 -0.000000e+00
    outer loop
      vertex   6.500000e+00 1.675000e+01 0.000000e+00
      vertex   4.000000e+00 1.675000e+01 0.000000e+00
      vertex   6.500000e+00 1.675000e+01 -2.000000e+00
    endloop
  endfacet
  facet normal 0.000000e+00 -1.000000e+00 0.000000e+00
    outer loop
      vertex   6.500000e+00 1.675000e+01 -2.000000e+00
      vertex   4.000000e+00 1.675000e+01 0.000000e+00
      vertex   4.000000e+00 1.675000e+01 -2.000000e+00
    endloop
  endfacet
  facet normal -1.000000e+00 -3.665340e-15 -4.839963e-15
    outer loop
      vertex   6.500000e+00 -1.365000e+01 5.649038e+00
      vertex   6.500000e+00 -1.440000e+01 5.850000e+00
      vertex   6.500000e+00 -1.175000e+01 1.100000e+01
    endloop
  endfacet
  facet normal -1.000000e+00 2.090454e-15 -7.801682e-15
    outer loop
      vertex   6.500000e+00 -1.175000e+01 1.100000e+01
      vertex   6.500000e+00 -1.440000e+01 5.850000e+00
      vertex   6.500000e+00 -1.515000e+01 5.649038e+00
    endloop
  endfacet
  facet normal -1.000000e+00 -2.064620e-15 -5.161549e-15
    outer loop
      vertex   6.500000e+00 -1.175000e+01 1.100000e+01
      vertex   6.500000e+00 -1.515000e+01 5.649038e+00
      vertex   6.500000e+00 -1.675000e+01 1.300000e+01
    endloop
  endfacet
  facet normal -1.000000e+00 2.541326e-15 -4.159025e-15
    outer loop
      vertex   6.500000e+00 -1.675000e+01 1.300000e+01
      vertex   6.500000e+00 -1.515000e+01 5.649038e+00
      vertex   6.500000e+00 -1.569904e+01 5.100000e+00
    endloop
  endfacet
  facet normal -1.000000e+00 1.121522e-14 -3.005110e-15
    outer loop
      vertex   6.500000e+00 -1.675000e+01 1.300000e+01
      vertex   6.500000e+00 -1.569904e+01 5.100000e+00
      vertex   6.500000e+00 -1.590000e+01 4.350000e+00
    endloop
  endfacet
  facet normal -1.000000e+00 3.901555e-14 -2.732857e-16
    outer loop
      vertex   6.500000e+00 -1.675000e+01 1.300000e+01
      vertex   6.500000e+00 -1.590000e+01 4.350000e+00
      vertex   6.500000e+00 -1.675000e+01 0.000000e+00
    endloop
  endfacet
  facet normal -1.000000e+00 1.586364e-14 4.250650e-15
    outer loop
      vertex   6.500000e+00 -1.675000e+01 0.000000e+00
      vertex   6.500000e+00 -1.590000e+01 4.350000e+00
      vertex   6.500000e+00 -1.569904e+01 3.600000e+00
    endloop
  endfacet
  facet normal -1.000000e+00 5.622645e-15 7.240344e-15
    outer loop
      vertex   6.500000e+00 -1.675000e+01 0.000000e+00
      vertex   6.500000e+00 -1.569904e+01 3.600000e+00
      vertex   6.500000e+00 -1.515000e+01 3.050962e+00
    endloop
  endfacet
  facet normal -1.000000e+00 1.355432e-15 9.478176e-15
    outer loop
      vertex   6.500000e+00 -1.515000e+01 3.050962e+00
      vertex   6.500000e+00 -1.440000e+01 2.850000e+00
      vertex   6.500000e+00 -1.675000e+01 0.000000e+00
    endloop
  endfacet
  facet normal -1.000000e+00 2.652818e-15 8.408402e-15
    outer loop
      vertex   6.500000e+00 -1.675000e+01 0.000000e+00
      vertex   6.500000e+00 -1.440000e+01 2.850000e+00
      vertex   6.500000e+00 -1.175000e+01 -2.000000e+00
    endloop
  endfacet
  facet normal -1.000000e+00 -7.105427e-16 -1.262177e-30
    outer loop
      vertex   6.500000e+00 -1.675000e+01 0.000000e+00
      vertex   6.500000e+00 -1.175000e+01 -2.000000e+00
      vertex   6.500000e+00 -1.675000e+01 -2.000000e+00
    endloop
  endfacet
  facet normal -1.000000e+00 -2.659510e-15 5.505790e-15
    outer loop
      vertex   6.500000e+00 -1.440000e+01 2.850000e+00
      vertex   6.500000e+00 -1.365000e+01 3.050962e+00
      vertex   6.500000e+00 -1.175000e+01 -2.000000e+00
    endloop
  endfacet
  facet normal -1.000000e+00 -5.903289e-15 4.285590e-15
    outer loop
      vertex   6.500000e+00 -1.175000e+01 -2.000000e+00
      vertex   6.500000e+00 -1.365000e+01 3.050962e+00
      vertex   6.500000e+00 -1.310096e+01 3.600000e+00
    endloop
  endfacet
  facet normal -1.000000e+00 -1.121328e-14 3.004590e-15
    outer loop
      vertex   6.500000e+00 -1.175000e+01 -2.000000e+00
      vertex   6.500000e+00 -1.310096e+01 3.600000e+00
      vertex   6.500000e+00 -1.290000e+01 4.350000e+00
    endloop
  endfacet
  facet normal -1.000000e+00 -2.780385e-14 3.799196e-30
    outer loop
      vertex   6.500000e+00 -1.175000e+01 -2.000000e+00
      vertex   6.500000e+00 -1.290000e+01 4.350000e+00
      vertex   6.500000e+00 -1.175000e+01 1.100000e+01
    endloop
  endfacet
  facet normal -1.000000e+00 -1.090584e-14 -2.922211e-15
    outer loop
      vertex   6.500000e+00 -1.175000e+01 1.100000e+01
      vertex   6.500000e+00 -1.290000e+01 4.350000e+00
      vertex   6.500000e+00 -1.310096e+01 5.100000e+00
    endloop
  endfacet
  facet normal -1.000000e+00 -5.725978e-15 -4.108279e-15
    outer loop
      vertex   6.500000e+00 -1.175000e+01 1.100000e+01
      vertex   6.500000e+00 -1.310096e+01 5.100000e+00
      vertex   6.500000e+00 -1.365000e+01 5.649038e+00
    endloop
  endfacet
  facet normal -1.000000e+00 1.608042e-16 6.001294e-16
    outer loop
      vertex   6.500000e+00 1.515000e+01 5.649038e+00
      vertex   6.500000e+00 1.440000e+01 5.850000e+00
      vertex   6.500000e+00 1.175000e+01 1.100000e+01
    endloop
  endfacet
  facet normal -1.000000e+00 -2.203322e-15 -6.163627e-16
    outer loop
      vertex   6.500000e+00 1.175000e+01 1.100000e+01
      vertex   6.500000e+00 1.440000e+01 5.850000e+00
      vertex   6.500000e+00 1.365000e+01 5.649038e+00
    endloop
  endfacet
  facet normal -1.000000e+00 -1.316298e-15 -3.014014e-16
    outer loop
      vertex   6.500000e+00 1.175000e+01 1.100000e+01
      vertex   6.500000e+00 1.365000e+01 5.649038e+00
      vertex   6.500000e+00 1.310096e+01 5.100000e+00
    endloop
  endfacet
  facet normal -1.000000e+00 -0.000000e+00 0.000000e+00
    outer loop
      vertex   6.500000e+00 1.310096e+01 5.100000e+00
      vertex   6.500000e+00 1.290000e+01 4.350000e+00
      vertex   6.500000e+00 1.175000e+01 1.100000e+01
    endloop
  endfacet
  facet normal -1.000000e+00 0.000000e+00 0.000000e+00
    outer loop
      vertex   6.500000e+00 1.175000e+01 1.100000e+01
      vertex   6.500000e+00 1.290000e+01 4.350000e+00
      vertex   6.500000e+00 1.175000e+01 -2.000000e+00
    endloop
  endfacet
  facet normal -1.000000e+00 0.000000e+00 0.000000e+00
    outer loop
      vertex   6.500000e+00 1.175000e+01 -2.000000e+00
      vertex   6.500000e+00 1.290000e+01 4.350000e+00
      vertex   6.500000e+00 1.310096e+01 3.600000e+00
    endloop
  endfacet
  facet normal -1.000000e+00 -1.303289e-15 3.144097e-16
    outer loop
      vertex   6.500000e+00 1.175000e+01 -2.000000e+00
      vertex   6.500000e+00 1.310096e+01 3.600000e+00
      vertex   6.500000e+00 1.365000e+01 3.050962e+00
    endloop
  endfacet
  facet normal -1.000000e+00 -1.118607e-15 2.449384e-16
    outer loop
      vertex   6.500000e+00 1.365000e+01 3.050962e+00
      vertex   6.500000e+00 1.440000e+01 2.850000e+00
      vertex   6.500000e+00 1.175000e+01 -2.000000e+00
    endloop
  endfacet
  facet normal -1.000000e+00 -1.403744e-15 4.007349e-16
    outer loop
      vertex   6.500000e+00 1.175000e+01 -2.000000e+00
      vertex   6.500000e+00 1.440000e+01 2.850000e+00
      vertex   6.500000e+00 1.675000e+01 0.000000e+00
    endloop
  endfacet
  facet normal -1.000000e+00 -1.243450e-15 0.000000e+00
    outer loop
      vertex   6.500000e+00 1.175000e+01 -2.000000e+00
      vertex   6.500000e+00 1.675000e+01 0.000000e+00
      vertex   6.500000e+00 1.675000e+01 -2.000000e+00
    endloop
  endfacet
  facet normal -1.000000e+00 -1.311905e-15 4.764613e-16
    outer loop
      vertex   6.500000e+00 1.440000e+01 2.850000e+00
      vertex   6.500000e+00 1.515000e+01 3.050962e+00
      vertex   6.500000e+00 1.675000e+01 0.000000e+00
    endloop
  endfacet
  facet normal -1.000000e+00 -1.825053e-15 2.073539e-16
    outer loop
      vertex   6.500000e+00 1.675000e+01 0.000000e+00
      vertex   6.500000e+00 1.515000e+01 3.050962e+00
      vertex   6.500000e+00 1.569904e+01 3.600000e+00
    endloop
  endfacet
  facet normal -1.000000e+00 -1.321970e-15 3.542208e-16
    outer loop
      vertex   6.500000e+00 1.675000e+01 0.000000e+00
      vertex   6.500000e+00 1.569904e+01 3.600000e+00
      vertex   6.500000e+00 1.590000e+01 4.350000e+00
    endloop
  endfacet
  facet normal -1.000000e+00 -3.134747e-15 0.000000e+00
    outer loop
      vertex   6.500000e+00 1.675000e+01 0.000000e+00
      vertex   6.500000e+00 1.590000e+01 4.350000e+00
      vertex   6.500000e+00 1.675000e+01 1.300000e+01
    endloop
  endfacet
  facet normal -1.000000e+00 -8.411416e-16 -2.253832e-16
    outer loop
      vertex   6.500000e+00 1.675000e+01 1.300000e+01
      vertex   6.500000e+00 1.590000e+01 4.350000e+00
      vertex   6.500000e+00 1.569904e+01 5.100000e+00
    endloop
  endfacet
  facet normal -1.000000e+00 -1.725441e-15 -1.077421e-16
    outer loop
      vertex   6.500000e+00 1.675000e+01 1.300000e+01
      vertex   6.500000e+00 1.569904e+01 5.100000e+00
      vertex   6.500000e+00 1.515000e+01 5.649038e+00
    endloop
  endfacet
  facet normal -1.000000e+00 -1.150277e-15 -2.329314e-16
    outer loop
      vertex   6.500000e+00 1.675000e+01 1.300000e+01
      vertex   6.500000e+00 1.515000e+01 5.649038e+00
      vertex   6.500000e+00 1.175000e+01 1.100000e+01
    endloop
  endfacet
  facet normal -1.000000e+00 -0.000000e+00 -3.108624e-15
    outer loop
      vertex   6.500000e+00 1.175000e+01 1.100000e+01
      vertex   6.500000e+00 -1.175000e+01 1.100000e+01
      vertex   6.500000e+00 1.675000e+01 1.300000e+01
    endloop
  endfacet
  facet normal -1.000000e+00 -1.855895e-16 -4.639738e-16
    outer loop
      vertex   6.500000e+00 1.675000e+01 1.300000e+01
      vertex   6.500000e+00 -1.175000e+01 1.100000e+01
      vertex   6.500000e+00 -1.675000e+01 1.300000e+01
    endloop
  endfacet
  facet normal -0.000000e+00 -1.000000e+00 -0.000000e+00
    outer loop
      vertex   9.000000e+00 1.175000e+01 1.100000e+01
      vertex   6.500000e+00 1.175000e+01 1.100000e+01
      vertex   9.000000e+00 1.175000e+01 0.000000e+00
    endloop
  endfacet
  facet normal -0.000000e+00 -1.000000e+00 0.000000e+00
    outer loop
      vertex   9.000000e+00 1.175000e+01 0.000000e+00
      vertex   6.500000e+00 1.175000e+01 1.100000e+01
      vertex   6.500000e+00 1.175000e+01 -2.000000e+00
    endloop
  endfacet
  facet normal -2.220446e-16 -1.000000e+00 2.775558e-16
    outer loop
      vertex   9.000000e+00 1.175000e+01 0.000000e+00
      vertex   6.500000e+00 1.175000e+01 -2.000000e+00
      vertex   2.250000e+01 1.175000e+01 -2.000000e+00
    endloop
  endfacet
  facet normal -2.631640e-16 -1.000000e+00 0.000000e+00
    outer loop
      vertex   2.250000e+01 1.175000e+01 -2.000000e+00
      vertex   2.250000e+01 1.175000e+01 0.000000e+00
      vertex   9.000000e+00 1.175000e+01 0.000000e+00
    endloop
  endfacet
  facet normal -1.000000e+00 0.000000e+00 0.000000e+00
    outer loop
      vertex   2.250000e+01 -1.175000e+01 0.000000e+00
      vertex   2.250000e+01 1.175000e+01 0.000000e+00
      vertex   2.250000e+01 -1.175000e+01 -2.000000e+00
    endloop
  endfacet
  facet normal -1.000000e+00 0.000000e+00 0.000000e+00
    outer loop
      vertex   2.250000e+01 -1.175000e+01 -2.000000e+00
      vertex   2.250000e+01 1.175000e+01 0.000000e+00
      vertex   2.250000e+01 1.175000e+01 -2.000000e+00
    endloop
  endfacet
  facet normal -2.631640e-16 1.000000e+00 0.000000e+00
    outer loop
      vertex   2.250000e+01 -1.175000e+01 0.000000e+00
      vertex   2.250000e+01 -1.175000e+01 -2.000000e+00
      vertex   9.000000e+00 -1.175000e+01 0.000000e+00
    endloop
  endfacet
  facet normal -3.330669e-16 1.000000e+00 -4.718448e-16
    outer loop
      vertex   9.000000e+00 -1.175000e+01 0.000000e+00
      vertex   2.250000e+01 -1.175000e+01 -2.000000e+00
      vertex   6.500000e+00 -1.175000e+01 -2.000000e+00
    endloop
  endfacet
  facet normal -6.012285e-16 1.000000e+00 -1.366428e-16
    outer loop
      vertex   9.000000e+00 -1.175000e+01 0.000000e+00
      vertex   6.500000e+00 -1.175000e+01 -2.000000e+00
      vertex   6.500000e+00 -1.175000e+01 1.100000e+01
    endloop
  endfacet
  facet normal -0.000000e+00 1.000000e+00 0.000000e+00
    outer loop
      vertex   6.500000e+00 -1.175000e+01 1.100000e+01
      vertex   9.000000e+00 -1.175000e+01 1.100000e+01
      vertex   9.000000e+00 -1.175000e+01 0.000000e+00
    endloop
  endfacet
  facet normal -0.000000e+00 1.000000e+00 1.776357e-15
    outer loop
      vertex   4.000000e+00 -1.675000e+01 0.000000e+00
      vertex   6.500000e+00 -1.675000e+01 0.000000e+00
      vertex   4.000000e+00 -1.675000e+01 -2.000000e+00
    endloop
  endfacet
  facet normal -0.000000e+00 1.000000e+00 1.776357e-15
    outer loop
      vertex   4.000000e+00 -1.675000e+01 -2.000000e+00
      vertex   6.500000e+00 -1.675000e+01 0.000000e+00
      vertex   6.500000e+00 -1.675000e+01 -2.000000e+00
    endloop
  endfacet
  facet normal 1.000000e+00 3.552714e-16 0.000000e+00
    outer loop
      vertex   4.000000e+00 -1.175000e+01 0.000000e+00
      vertex   4.000000e+00 -1.675000e+01 0.000000e+00
      vertex   4.000000e+00 -1.175000e+01 -2.000000e+00
    endloop
  endfacet
  facet normal 1.000000e+00 3.552714e-16 6.310887e-31
    outer loop
      vertex   4.000000e+00 -1.175000e+01 -2.000000e+00
      vertex   4.000000e+00 -1.675000e+01 0.000000e+00
      vertex   4.000000e+00 -1.675000e+01 -2.000000e+00
    endloop
  endfacet
  facet normal 0.000000e+00 1.000000e+00 0.000000e+00
    outer loop
      vertex   4.000000e+00 -1.175000e+01 0.000000e+00
      vertex   0.000000e+00 -1.175000e+01 -2.000000e+00
      vertex   -2.000000e+00 -1.175000e+01 0.000000e+00
    endloop
  endfacet
  facet normal 0.000000e+00 1.000000e+00 0.000000e+00
    outer loop
      vertex   -2.000000e+00 -1.175000e+01 0.000000e+00
      vertex   0.000000e+00 -1.175000e+01 -2.000000e+00
      vertex   3.072862e-15 -1.175000e+01 -4.540000e+00
    endloop
  endfacet
  facet normal 0.000000e+00 1.000000e+00 0.000000e+00
    outer loop
      vertex   -2.000000e+00 -1.175000e+01 0.000000e+00
      vertex   3.072862e-15 -1.175000e+01 -4.540000e+00
      vertex   -2.000000e+00 -1.175000e+01 -6.540000e+00
    endloop
  endfacet
  facet normal 0.000000e+00 1.000000e+00 0.000000e+00
    outer loop
      vertex   -2.000000e+00 -1.175000e+01 -6.540000e+00
      vertex   3.072862e-15 -1.175000e+01 -4.540000e+00
      vertex   3.000000e+00 -1.175000e+01 -6.540000e+00
    endloop
  endfacet
  facet normal 0.000000e+00 1.000000e+00 -0.000000e+00
    outer loop
      vertex   3.000000e+00 -1.175000e+01 -6.540000e+00
      vertex   3.072862e-15 -1.175000e+01 -4.540000e+00
      vertex   3.000000e+00 -1.175000e+01 -4.540000e+00
    endloop
  endfacet
  facet normal 0.000000e+00 1.000000e+00 0.000000e+00
    outer loop
      vertex   4.000000e+00 -1.175000e+01 0.000000e+00
      vertex   4.000000e+00 -1.175000e+01 -2.000000e+00
      vertex   0.000000e+00 -1.175000e+01 -2.000000e+00
    endloop
  endfacet
  facet normal -7.071068e-01 -7.071068e-01 -0.000000e+00
    outer loop
      vertex   7.000000e+00 -2.500000e+01 0.000000e+00
      vertex   -8.212732e-16 -1.800000e+01 0.000000e+00
      vertex   7.000000e+00 -2.500000e+01 -2.000000e+00
    endloop
  endfacet
  facet normal -7.071068e-01 -7.071068e-01 -1.076635e-15
    outer loop
      vertex   7.000000e+00 -2.500000e+01 -2.000000e+00
      vertex   -8.212732e-16 -1.800000e+01 0.000000e+00
      vertex   -5.551115e-16 -1.800000e+01 -2.000000e+00
    endloop
  endfacet
  facet normal -0.000000e+00 -1.000000e+00 -0.000000e+00
    outer loop
      vertex   1.425000e+01 -2.500000e+01 0.000000e+00
      vertex   7.000000e+00 -2.500000e+01 0.000000e+00
      vertex   1.425000e+01 -2.500000e+01 -2.000000e+00
    endloop
  endfacet
  facet normal 0.000000e+00 -1.000000e+00 0.000000e+00
    outer loop
      vertex   1.425000e+01 -2.500000e+01 -2.000000e+00
      vertex   7.000000e+00 -2.500000e+01 0.000000e+00
      vertex   7.000000e+00 -2.500000e+01 -2.000000e+00
    endloop
  endfacet
  facet normal 7.071068e-01 -7.071068e-01 6.280370e-16
    outer loop
      vertex   2.500000e+01 -1.425000e+01 0.000000e+00
      vertex   1.425000e+01 -2.500000e+01 0.000000e+00
      vertex   2.500000e+01 -1.425000e+01 -2.000000e+00
    endloop
  endfacet
  facet normal 7.071068e-01 -7.071068e-01 0.000000e+00
    outer loop
      vertex   2.500000e+01 -1.425000e+01 -2.000000e+00
      vertex   1.425000e+01 -2.500000e+01 0.000000e+00
      vertex   1.425000e+01 -2.500000e+01 -2.000000e+00
    endloop
  endfacet
  facet normal 1.000000e+00 0.000000e+00 1.776357e-15
    outer loop
      vertex   2.500000e+01 1.425000e+01 0.000000e+00
      vertex   2.500000e+01 -1.425000e+01 0.000000e+00
      vertex   2.500000e+01 1.425000e+01 -2.000000e+00
    endloop
  endfacet
  facet normal 1.000000e+00 0.000000e+00 1.776357e-15
    outer loop
      vertex   2.500000e+01 1.425000e+01 -2.000000e+00
      vertex   2.500000e+01 -1.425000e+01 0.000000e+00
      vertex   2.500000e+01 -1.425000e+01 -2.000000e+00
    endloop
  endfacet
  facet normal 7.071068e-01 7.071068e-01 0.000000e+00
    outer loop
      vertex   1.425000e+01 2.500000e+01 0.000000e+00
      vertex   2.500000e+01 1.425000e+01 0.000000e+00
      vertex   1.425000e+01 2.500000e+01 -2.000000e+00
    endloop
  endfacet
  facet normal 7.071068e-01 7.071068e-01 1.402129e-15
    outer loop
      vertex   1.425000e+01 2.500000e+01 -2.000000e+00
      vertex   2.500000e+01 1.425000e+01 0.000000e+00
      vertex   2.500000e+01 1.425000e+01 -2.000000e+00
    endloop
  endfacet
  facet normal -0.000000e+00 1.000000e+00 0.000000e+00
    outer loop
      vertex   7.000000e+00 2.500000e+01 0.000000e+00
      vertex   1.425000e+01 2.500000e+01 0.000000e+00
      vertex   7.000000e+00 2.500000e+01 -2.000000e+00
    endloop
  endfacet
  facet normal 0.000000e+00 1.000000e+00 0.000000e+00
    outer loop
      vertex   7.000000e+00 2.500000e+01 -2.000000e+00
      vertex   1.425000e+01 2.500000e+01 0.000000e+00
      vertex   1.425000e+01 2.500000e+01 -2.000000e+00
    endloop
  endfacet
  facet normal -7.071068e-01 7.071068e-01 -9.268017e-17
    outer loop
      vertex   -8.172506e-16 1.800000e+01 0.000000e+00
      vertex   7.000000e+00 2.500000e+01 0.000000e+00
      vertex   -5.551115e-16 1.800000e+01 -2.000000e+00
    endloop
  endfacet
  facet normal -7.071068e-01 7.071068e-01 0.000000e+00
    outer loop
      vertex   -5.551115e-16 1.800000e+01 -2.000000e+00
      vertex   7.000000e+00 2.500000e+01 0.000000e+00
      vertex   7.000000e+00 2.500000e+01 -2.000000e+00
    endloop
  endfacet
  facet normal 0.000000e+00 -1.000000e+00 0.000000e+00
    outer loop
      vertex   4.000000e+00 1.175000e+01 -2.000000e+00
      vertex   4.000000e+00 1.175000e+01 0.000000e+00
      vertex   0.000000e+00 1.175000e+01 -2.000000e+00
    endloop
  endfacet
  facet normal 0.000000e+00 -1.000000e+00 0.000000e+00
    outer loop
      vertex   0.000000e+00 1.175000e+01 -2.000000e+00
      vertex   4.000000e+00 1.175000e+01 0.000000e+00
      vertex   -2.000000e+00 1.175000e+01 0.000000e+00
    endloop
  endfacet
  facet normal -0.000000e+00 -1.000000e+00 -0.000000e+00
    outer loop
      vertex   0.000000e+00 1.175000e+01 -2.000000e+00
      vertex   -2.000000e+00 1.175000e+01 0.000000e+00
      vertex   3.722028e-31 1.175000e+01 -4.540000e+00
    endloop
  endfacet
  facet normal -0.000000e+00 -1.000000e+00 0.000000e+00
    outer loop
      vertex   3.722028e-31 1.175000e+01 -4.540000e+00
      vertex   -2.000000e+00 1.175000e+01 0.000000e+00
      vertex   -2.000000e+00 1.175000e+01 -6.540000e+00
    endloop
  endfacet
  facet normal 0.000000e+00 -1.000000e+00 -0.000000e+00
    outer loop
      vertex   3.722028e-31 1.175000e+01 -4.540000e+00
      vertex   -2.000000e+00 1.175000e+01 -6.540000e+00
      vertex   3.000000e+00 1.175000e+01 -6.540000e+00
    endloop
  endfacet
  facet normal 0.000000e+00 -1.000000e+00 0.000000e+00
    outer loop
      vertex   3.000000e+00 1.175000e+01 -6.540000e+00
      vertex   3.000000e+00 1.175000e+01 -4.540000e+00
      vertex   3.722028e-31 1.175000e+01 -4.540000e+00
    endloop
  endfacet
  facet normal 1.000000e+00 5.329071e-16 0.000000e+00
    outer loop
      vertex   4.000000e+00 1.675000e+01 0.000000e+00
      vertex   4.000000e+00 1.175000e+01 0.000000e+00
      vertex   4.000000e+00 1.675000e+01 -2.000000e+00
    endloop
  endfacet
  facet normal 1.000000e+00 5.329071e-16 0.000000e+00
    outer loop
      vertex   4.000000e+00 1.675000e+01 -2.000000e+00
      vertex   4.000000e+00 1.175000e+01 0.000000e+00
      vertex   4.000000e+00 1.175000e+01 -2.000000e+00
    endloop
  endfacet
  facet normal 0.000000e+00 0.000000e+00 -1.000000e+00
    outer loop
      vertex   4.000000e+00 1.175000e+01 -2.000000e+00
      vertex   0.000000e+00 1.175000e+01 -2.000000e+00
      vertex   4.000000e+00 1.675000e+01 -2.000000e+00
    endloop
  endfacet
  facet normal -0.000000e+00 0.000000e+00 -1.000000e+00
    outer loop
      vertex   4.000000e+00 1.675000e+01 -2.000000e+00
      vertex   0.000000e+00 1.175000e+01 -2.000000e+00
      vertex   -5.551115e-16 1.800000e+01 -2.000000e+00
    endloop
  endfacet
  facet normal 0.000000e+00 0.000000e+00 -1.000000e+00
    outer loop
      vertex   4.000000e+00 1.675000e+01 -2.000000e+00
      vertex   -5.551115e-16 1.800000e+01 -2.000000e+00
      vertex   7.000000e+00 2.500000e+01 -2.000000e+00
    endloop
  endfacet
  facet normal -0.000000e+00 0.000000e+00 -1.000000e+00
    outer loop
      vertex   1.425000e+01 2.500000e+01 -2.000000e+00
      vertex   9.500000e+00 2.390000e+01 -2.000000e+00
      vertex   7.000000e+00 2.500000e+01 -2.000000e+00
    endloop
  endfacet
  facet normal 0.000000e+00 0.000000e+00 -1.000000e+00
    outer loop
      vertex   7.000000e+00 2.500000e+01 -2.000000e+00
      vertex   9.500000e+00 2.390000e+01 -2.000000e+00
      vertex   8.750000e+00 2.369904e+01 -2.000000e+00
    endloop
  endfacet
  facet normal 0.000000e+00 0.000000e+00 -1.000000e+00
    outer loop
      vertex   7.000000e+00 2.500000e+01 -2.000000e+00
      vertex   8.750000e+00 2.369904e+01 -2.000000e+00
      vertex   8.200962e+00 2.315000e+01 -2.000000e+00
    endloop
  endfacet
  facet normal -0.000000e+00 0.000000e+00 -1.000000e+00
    outer loop
      vertex   2.500000e+01 1.425000e+01 -2.000000e+00
      vertex   2.250000e+01 1.175000e+01 -2.000000e+00
      vertex   1.425000e+01 2.500000e+01 -2.000000e+00
    endloop
  endfacet
  facet normal 0.000000e+00 -0.000000e+00 -1.000000e+00
    outer loop
      vertex   1.425000e+01 2.500000e+01 -2.000000e+00
      vertex   2.250000e+01 1.175000e+01 -2.000000e+00
      vertex   1.079904e+01 2.165000e+01 -2.000000e+00
    endloop
  endfacet
  facet normal 0.000000e+00 0.000000e+00 -1.000000e+00
    outer loop
      vertex   1.425000e+01 2.500000e+01 -2.000000e+00
      vertex   1.079904e+01 2.165000e+01 -2.000000e+00
      vertex   1.100000e+01 2.240000e+01 -2.000000e+00
    endloop
  endfacet
  facet normal 0.000000e+00 -0.000000e+00 -1.000000e+00
    outer loop
      vertex   2.500000e+01 1.425000e+01 -2.000000e+00
      vertex   2.500000e+01 -1.425000e+01 -2.000000e+00
      vertex   2.250000e+01 1.175000e+01 -2.000000e+00
    endloop
  endfacet
  facet normal 0.000000e+00 0.000000e+00 -1.000000e+00
    outer loop
      vertex   2.250000e+01 1.175000e+01 -2.000000e+00
      vertex   2.500000e+01 -1.425000e+01 -2.000000e+00
      vertex   2.250000e+01 -1.175000e+01 -2.000000e+00
    endloop
  endfacet
  facet normal 0.000000e+00 -0.000000e+00 -1.000000e+00
    outer loop
      vertex   2.250000e+01 -1.175000e+01 -2.000000e+00
      vertex   2.500000e+01 -1.425000e+01 -2.000000e+00
      vertex   1.425000e+01 -2.500000e+01 -2.000000e+00
    endloop
  endfacet
  facet normal 0.000000e+00 0.000000e+00 -1.000000e+00
    outer loop
      vertex   2.250000e+01 -1.175000e+01 -2.000000e+00
      vertex   1.425000e+01 -2.500000e+01 -2.000000e+00
      vertex   1.079904e+01 -2.165000e+01 -2.000000e+00
    endloop
  endfacet
  facet normal 0.000000e+00 0.000000e+00 -1.000000e+00
    outer loop
      vertex   1.079904e+01 -2.165000e+01 -2.000000e+00
      vertex   1.425000e+01 -2.500000e+01 -2.000000e+00
      vertex   1.100000e+01 -2.240000e+01 -2.000000e+00
    endloop
  endfacet
  facet normal 0.000000e+00 -0.000000e+00 -1.000000e+00
    outer loop
      vertex   1.100000e+01 -2.240000e+01 -2.000000e+00
      vertex   1.425000e+01 -2.500000e+01 -2.000000e+00
      vertex   1.079904e+01 -2.315000e+01 -2.000000e+00
    endloop
  endfacet
  facet normal 0.000000e+00 -0.000000e+00 -1.000000e+00
    outer loop
      vertex   1.079904e+01 -2.315000e+01 -2.000000e+00
      vertex   1.425000e+01 -2.500000e+01 -2.000000e+00
      vertex   1.025000e+01 -2.369904e+01 -2.000000e+00
    endloop
  endfacet
  facet normal 0.000000e+00 -0.000000e+00 -1.000000e+00
    outer loop
      vertex   1.025000e+01 -2.369904e+01 -2.000000e+00
      vertex   1.425000e+01 -2.500000e+01 -2.000000e+00
      vertex   9.500000e+00 -2.390000e+01 -2.000000e+00
    endloop
  endfacet
  facet normal 0.000000e+00 -0.000000e+00 -1.000000e+00
    outer loop
      vertex   9.500000e+00 -2.390000e+01 -2.000000e+00
      vertex   1.425000e+01 -2.500000e+01 -2.000000e+00
      vertex   7.000000e+00 -2.500000e+01 -2.000000e+00
    endloop
  endfacet
  facet normal -0.000000e+00 0.000000e+00 -1.000000e+00
    outer loop
      vertex   9.500000e+00 -2.390000e+01 -2.000000e+00
      vertex   7.000000e+00 -2.500000e+01 -2.000000e+00
      vertex   8.750000e+00 -2.369904e+01 -2.000000e+00
    endloop
  endfacet
  facet normal -0.000000e+00 0.000000e+00 -1.000000e+00
    outer loop
      vertex   8.750000e+00 -2.369904e+01 -2.000000e+00
      vertex   7.000000e+00 -2.500000e+01 -2.000000e+00
      vertex   8.200962e+00 -2.315000e+01 -2.000000e+00
    endloop
  endfacet
  facet normal -0.000000e+00 0.000000e+00 -1.000000e+00
    outer loop
      vertex   8.200962e+00 -2.315000e+01 -2.000000e+00
      vertex   7.000000e+00 -2.500000e+01 -2.000000e+00
      vertex   8.000000e+00 -2.240000e+01 -2.000000e+00
    endloop
  endfacet
  facet normal -0.000000e+00 0.000000e+00 -1.000000e+00
    outer loop
      vertex   8.000000e+00 -2.240000e+01 -2.000000e+00
      vertex   7.000000e+00 -2.500000e+01 -2.000000e+00
      vertex   6.500000e+00 -1.675000e+01 -2.000000e+00
    endloop
  endfacet
  facet normal 0.000000e+00 0.000000e+00 -1.000000e+00
    outer loop
      vertex   8.000000e+00 -2.240000e+01 -2.000000e+00
      vertex   6.500000e+00 -1.675000e+01 -2.000000e+00
      vertex   8.200962e+00 -2.165000e+01 -2.000000e+00
    endloop
  endfacet
  facet normal 0.000000e+00 0.000000e+00 -1.000000e+00
    outer loop
      vertex   8.200962e+00 -2.165000e+01 -2.000000e+00
      vertex   6.500000e+00 -1.675000e+01 -2.000000e+00
      vertex   8.750000e+00 -2.110096e+01 -2.000000e+00
    endloop
  endfacet
  facet normal 0.000000e+00 0.000000e+00 -1.000000e+00
    outer loop
      vertex   8.750000e+00 -2.110096e+01 -2.000000e+00
      vertex   6.500000e+00 -1.675000e+01 -2.000000e+00
      vertex   9.500000e+00 -2.090000e+01 -2.000000e+00
    endloop
  endfacet
  facet normal 0.000000e+00 0.000000e+00 -1.000000e+00
    outer loop
      vertex   9.500000e+00 -2.090000e+01 -2.000000e+00
      vertex   6.500000e+00 -1.675000e+01 -2.000000e+00
      vertex   6.500000e+00 -1.175000e+01 -2.000000e+00
    endloop
  endfacet
  facet normal 0.000000e+00 0.000000e+00 -1.000000e+00
    outer loop
      vertex   9.500000e+00 -2.090000e+01 -2.000000e+00
      vertex   6.500000e+00 -1.175000e+01 -2.000000e+00
      vertex   1.025000e+01 -2.110096e+01 -2.000000e+00
    endloop
  endfacet
  facet normal 0.000000e+00 0.000000e+00 -1.000000e+00
    outer loop
      vertex   1.025000e+01 -2.110096e+01 -2.000000e+00
      vertex   6.500000e+00 -1.175000e+01 -2.000000e+00
      vertex   1.079904e+01 -2.165000e+01 -2.000000e+00
    endloop
  endfacet
  facet normal 0.000000e+00 0.000000e+00 -1.000000e+00
    outer loop
      vertex   1.079904e+01 -2.165000e+01 -2.000000e+00
      vertex   6.500000e+00 -1.175000e+01 -2.000000e+00
      vertex   2.250000e+01 -1.175000e+01 -2.000000e+00
    endloop
  endfacet
  facet normal -0.000000e+00 -0.000000e+00 -1.000000e+00
    outer loop
      vertex   6.500000e+00 -1.675000e+01 -2.000000e+00
      vertex   7.000000e+00 -2.500000e+01 -2.000000e+00
      vertex   4.000000e+00 -1.675000e+01 -2.000000e+00
    endloop
  endfacet
  facet normal 0.000000e+00 -0.000000e+00 -1.000000e+00
    outer loop
      vertex   4.000000e+00 -1.675000e+01 -2.000000e+00
      vertex   7.000000e+00 -2.500000e+01 -2.000000e+00
      vertex   -5.551115e-16 -1.800000e+01 -2.000000e+00
    endloop
  endfacet
  facet normal -0.000000e+00 0.000000e+00 -1.000000e+00
    outer loop
      vertex   4.000000e+00 -1.675000e+01 -2.000000e+00
      vertex   -5.551115e-16 -1.800000e+01 -2.000000e+00
      vertex   0.000000e+00 -1.175000e+01 -2.000000e+00
    endloop
  endfacet
  facet normal 0.000000e+00 0.000000e+00 -1.000000e+00
    outer loop
      vertex   0.000000e+00 -1.175000e+01 -2.000000e+00
      vertex   4.000000e+00 -1.175000e+01 -2.000000e+00
      vertex   4.000000e+00 -1.675000e+01 -2.000000e+00
    endloop
  endfacet
  facet normal 0.000000e+00 0.000000e+00 -1.000000e+00
    outer loop
      vertex   2.250000e+01 1.175000e+01 -2.000000e+00
      vertex   6.500000e+00 1.175000e+01 -2.000000e+00
      vertex   1.079904e+01 2.165000e+01 -2.000000e+00
    endloop
  endfacet
  facet normal 0.000000e+00 0.000000e+00 -1.000000e+00
    outer loop
      vertex   1.079904e+01 2.165000e+01 -2.000000e+00
      vertex   6.500000e+00 1.175000e+01 -2.000000e+00
      vertex   1.025000e+01 2.110096e+01 -2.000000e+00
    endloop
  endfacet
  facet normal 0.000000e+00 0.000000e+00 -1.000000e+00
    outer loop
      vertex   1.025000e+01 2.110096e+01 -2.000000e+00
      vertex   6.500000e+00 1.175000e+01 -2.000000e+00
      vertex   9.500000e+00 2.090000e+01 -2.000000e+00
    endloop
  endfacet
  facet normal 0.000000e+00 0.000000e+00 -1.000000e+00
    outer loop
      vertex   9.500000e+00 2.090000e+01 -2.000000e+00
      vertex   6.500000e+00 1.175000e+01 -2.000000e+00
      vertex   6.500000e+00 1.675000e+01 -2.000000e+00
    endloop
  endfacet
  facet normal -0.000000e+00 0.000000e+00 -1.000000e+00
    outer loop
      vertex   9.500000e+00 2.090000e+01 -2.000000e+00
      vertex   6.500000e+00 1.675000e+01 -2.000000e+00
      vertex   8.750000e+00 2.110096e+01 -2.000000e+00
    endloop
  endfacet
  facet normal -0.000000e+00 0.000000e+00 -1.000000e+00
    outer loop
      vertex   8.750000e+00 2.110096e+01 -2.000000e+00
      vertex   6.500000e+00 1.675000e+01 -2.000000e+00
      vertex   8.200962e+00 2.165000e+01 -2.000000e+00
    endloop
  endfacet
  facet normal -0.000000e+00 0.000000e+00 -1.000000e+00
    outer loop
      vertex   8.200962e+00 2.165000e+01 -2.000000e+00
      vertex   6.500000e+00 1.675000e+01 -2.000000e+00
      vertex   8.000000e+00 2.240000e+01 -2.000000e+00
    endloop
  endfacet
  facet normal -0.000000e+00 0.000000e+00 -1.000000e+00
    outer loop
      vertex   8.000000e+00 2.240000e+01 -2.000000e+00
      vertex   6.500000e+00 1.675000e+01 -2.000000e+00
      vertex   7.000000e+00 2.500000e+01 -2.000000e+00
    endloop
  endfacet
  facet normal 0.000000e+00 0.000000e+00 -1.000000e+00
    outer loop
      vertex   8.000000e+00 2.240000e+01 -2.000000e+00
      vertex   7.000000e+00 2.500000e+01 -2.000000e+00
      vertex   8.200962e+00 2.315000e+01 -2.000000e+00
    endloop
  endfacet
  facet normal 0.000000e+00 0.000000e+00 -1.000000e+00
    outer loop
      vertex   6.500000e+00 1.675000e+01 -2.000000e+00
      vertex   4.000000e+00 1.675000e+01 -2.000000e+00
      vertex   7.000000e+00 2.500000e+01 -2.000000e+00
    endloop
  endfacet
  facet normal 0.000000e+00 0.000000e+00 -1.000000e+00
    outer loop
      vertex   1.100000e+01 2.240000e+01 -2.000000e+00
      vertex   1.079904e+01 2.315000e+01 -2.000000e+00
      vertex   1.425000e+01 2.500000e+01 -2.000000e+00
    endloop
  endfacet
  facet normal 0.000000e+00 0.000000e+00 -1.000000e+00
    outer loop
      vertex   1.425000e+01 2.500000e+01 -2.000000e+00
      vertex   1.079904e+01 2.315000e+01 -2.000000e+00
      vertex   1.025000e+01 2.369904e+01 -2.000000e+00
    endloop
  endfacet
  facet normal 0.000000e+00 0.000000e+00 -1.000000e+00
    outer loop
      vertex   1.425000e+01 2.500000e+01 -2.000000e+00
      vertex   1.025000e+01 2.369904e+01 -2.000000e+00
      vertex   9.500000e+00 2.390000e+01 -2.000000e+00
    endloop
  endfacet
endsolid
